<?xml version="1.0" encoding="utf-8"?>
<!-- Generator: Adobe Illustrator 19.0.0, SVG Export Plug-In . SVG Version: 6.00 Build 0)  -->
<svg version="1.1" id="icons" xmlns="http://www.w3.org/2000/svg" xmlns:xlink="http://www.w3.org/1999/xlink" x="0px" y="0px"
	 viewBox="0 0 64 64" style="enable-background:new 0 0 64 64;" xml:space="preserve">
<style type="text/css">
	.st0{fill:none;stroke:#414042;stroke-miterlimit:10;}
	.st1{fill:#A7A9AC;}
	.st2{fill:#F5AB35;}
	.st3{fill:none;stroke:#414042;stroke-miterlimit:10;stroke-dasharray:2.0184,2.0184;}
	.st4{fill:#414042;}
	.st5{fill:#E6E7E8;}
	.st6{fill:#36D7B7;}
	.st7{display:none;}
	.st8{display:inline;fill:none;stroke:#414042;stroke-miterlimit:10;}
	.st9{display:inline;fill:#F1F2F2;}
	.st10{display:inline;fill:#B88028;}
	.st11{display:inline;fill:#F5AB35;}
	.st12{display:inline;fill:#36D7B7;}
	.st13{display:inline;fill:#5EDFC5;}
	.st14{display:inline;fill:#E6E7E8;}
	.st15{display:inline;fill:#FAD79E;}
	.st16{display:inline;fill:#D1D3D4;}
	.st17{display:inline;fill:#F7BC5D;}
	.st18{display:inline;fill:#FFFFFF;}
	.st19{display:inline;fill:#EEEEEE;}
	.st20{display:inline;fill:#F9CD86;}
	.st21{display:inline;}
	.st22{fill:none;stroke:#414042;stroke-linecap:round;stroke-miterlimit:10;}
	.st23{display:inline;fill:#414042;}
	.st24{fill:#B88028;}
	.st25{fill:#F9CD86;}
	.st26{fill:#BCBEC0;}
	.st27{display:inline;fill:none;stroke:#414042;stroke-miterlimit:10;stroke-dasharray:2;}
	.st28{display:inline;fill:#AFEFE2;}
	.st29{display:inline;fill:#BCBEC0;}
	.st30{fill:#FFFFFF;}
	.st31{display:inline;opacity:0.2;fill:#414042;}
	.st32{display:inline;fill:none;stroke:#414042;stroke-miterlimit:10;stroke-dasharray:1;}
	.st33{display:inline;fill:#808285;}
	.st34{display:inline;fill:#EDA633;}
	.st35{display:inline;fill:#A7A9AC;}
	.st36{display:inline;opacity:0.2;fill:#231F20;}
</style>
<g id="XMLID_58_">
	<line id="XMLID_46_" class="st0" x1="19.9" y1="17.1" x2="43.6" y2="40.8"/>
	<polygon id="XMLID_755_" class="st1" points="42.1,21 42.1,21 42.1,21 	"/>
	<path id="XMLID_754_" class="st1" d="M42.1,21C42.1,21,42.1,21,42.1,21C42.1,21,42,21,42.1,21z"/>
	<circle id="XMLID_753_" class="st2" cx="31.8" cy="29" r="12.6"/>
	<circle id="XMLID_752_" class="st0" cx="31.8" cy="29" r="12.6"/>
	<path id="XMLID_48_" class="st0" d="M42,38.8c-2.5,2.6-6,4.2-9.9,4.3c-3.9,0.1-7.5-1.5-10.1-4c-2.6-2.5-4.2-6-4.3-9.9
		c-0.1-3.9,1.5-7.5,4-10.1"/>
	<g id="XMLID_53_">
		<g id="XMLID_38_">
			<path id="XMLID_41_" class="st0" d="M22.2,18.7c0.2-0.2,0.5-0.5,0.7-0.7"/>
			<path id="XMLID_40_" class="st3" d="M24.5,16.8c2.2-1.4,4.8-2.3,7.6-2.3c3.9,0,7.4,1.6,10,4.1c2.6,2.6,4.2,6.1,4.2,10
				c0,3.2-1,6.1-2.8,8.5"/>
			<path id="XMLID_39_" class="st0" d="M42.9,37.9c-0.2,0.3-0.4,0.5-0.7,0.7"/>
		</g>
	</g>
	<path id="XMLID_541_" class="st4" d="M43.8,25.1C44,25.1,43.8,25.1,43.8,25.1L43.8,25.1z M43.9,25.3C43.8,25.6,43.9,25.4,43.9,25.3
		L43.9,25.3z M38.7,24c0,0-2.3-2.2-0.6-2.3c0,0,0-0.1,0-0.1c-0.1,0,0,0,0,0.1c0-0.1-0.3,0-0.6,0c-0.1,0,0.1-0.1,0-0.1
		c0,0,0-0.1,0-0.1c0.1,0,0.1,0,0-0.1c0,0,0.4-0.3,0.5-0.1c0-0.1-0.1-0.1,0-0.1c0-0.2-1.2-1.3-2.1-1.9c0,0,0,0.1-0.1,0
		c-0.2-0.2-0.4-0.3-0.6-0.3c0.1,0,0-0.1,0-0.1c1.3,0.3,2.1-1.3,3.1-0.8c0,0,0.1,0,0.1,0.1c0,0,0,0,0,0c0,0,0,0,0,0
		c0,0,0.1,0.1,0.1,0.1c-0.1-0.2,3.5,2.3,3.2,2.9c0,0,0,0,0,0c0,0,0,0-0.1,0.1c0.1,0.1,0.1,0.1,0,0.1c0.3,0.1,0.2,0,0.1,0
		c0.5,0.1,0.3,0.4,0.4,0.6c0-0.2-1.3,0.1-0.1,0.2C39.8,21.8,39.4,23.3,38.7,24z M37.9,21.1C38,21.1,38,21.1,37.9,21.1L37.9,21.1z
		 M37.9,21.3C37.9,21.3,38.1,21.3,37.9,21.3L37.9,21.3z M37.6,22.4C37.7,22.4,37.6,22.4,37.6,22.4L37.6,22.4z M37.7,22
		C37.8,22,37.8,21.9,37.7,22L37.7,22z M38,21.9C37.7,21.9,38,21.9,38,21.9L38,21.9z M37.9,22.2C37.9,22.2,38,22.3,37.9,22.2
		L37.9,22.2z M38,22.1C38.2,22.3,37.8,21.9,38,22.1L38,22.1z M41.5,21.2C41.5,21.2,41.6,21.2,41.5,21.2L41.5,21.2z M41.3,21.9
		C41.5,21.7,41.1,21.8,41.3,21.9L41.3,21.9z M41.4,21.9C41.5,21.8,41.2,21.9,41.4,21.9L41.4,21.9z M41.5,21.2
		C41.4,21.3,41.7,21.2,41.5,21.2L41.5,21.2z M42.1,22.1C42.1,22.1,42,22.1,42.1,22.1L42.1,22.1z M41.8,21.2
		C41.8,21.2,41.8,21.2,41.8,21.2C41.8,21.2,41.8,21.2,41.8,21.2z M41.3,21.9C41.3,21.8,41.3,21.9,41.3,21.9L41.3,21.9z M41.8,21.1
		C41.8,21.1,41.8,21.1,41.8,21.1C41.8,21.1,41.8,21.1,41.8,21.1C41.8,21.1,41.8,21.1,41.8,21.1z M37.9,21.2
		C38,21.1,37.8,21.1,37.9,21.2L37.9,21.2z M24.2,22c0,0,0.1-0.1,0.1-0.1C24.3,21.9,24.2,22,24.2,22z M21.8,22.7
		C22.1,22.7,21.4,22.6,21.8,22.7L21.8,22.7z M24.4,21.9C24.4,21.9,24.4,22,24.4,21.9C24.4,21.9,24.4,21.9,24.4,21.9z M30.8,18.9
		C30.9,19,30.8,18.7,30.8,18.9L30.8,18.9z M31,19C31.1,19,31.1,19,31,19C31,19,31,19,31,19C31,19,31,19,31,19c-0.1,0-0.2,0-0.1,0
		C30.8,19,30.9,19,31,19C31,19,31,19,31,19z M31,19C31.1,19,31.1,19,31,19L31,19z M30.9,18.3C31,18.3,31,18.3,30.9,18.3L30.9,18.3z
		 M30.9,18.3C31,18.3,31.1,18.3,30.9,18.3L30.9,18.3z M31,18.2C31,18.2,31,18.2,31,18.2L31,18.2z M30.8,18.1
		C31.4,18.4,31.6,18.5,30.8,18.1L30.8,18.1z M30.8,18.1C30.9,18.1,30.8,18.1,30.8,18.1L30.8,18.1z M35.3,23.4
		C35.3,23.4,35.4,23.4,35.3,23.4C35.3,23.4,35.3,23.4,35.3,23.4z M30.8,18.7C30.8,18.7,30.4,18.6,30.8,18.7
		C30.8,18.7,30.8,18.7,30.8,18.7z M31.3,18.5c0,0-0.1-0.1-0.1-0.1C31.1,18.5,31.2,18.6,31.3,18.5z M31.6,17.9
		C31.9,18,31.3,17.9,31.6,17.9L31.6,17.9z M34.3,19.4C34.3,19.4,34.2,19.5,34.3,19.4C34.3,19.5,34.4,19.5,34.3,19.4z M33.1,29.3
		C33.1,29.3,33.1,29.3,33.1,29.3C33.1,29.3,33.1,29.3,33.1,29.3z M31.4,18.9C31.6,18.9,31.2,18.8,31.4,18.9L31.4,18.9z M31.5,19.1
		C31.3,19,31.4,19.1,31.5,19.1L31.5,19.1z M31.3,18.9C31.3,18.9,31.3,18.9,31.3,18.9L31.3,18.9z M31.1,18.9
		C30.7,19.1,32.4,18.6,31.1,18.9L31.1,18.9z M31.4,19C31.4,19,31.4,19,31.4,19C31.2,18.9,31.5,19,31.4,19z M36.5,18.1
		c-0.1,0-0.2,0-0.4,0C36.6,18.2,36.2,18,36.5,18.1z M33.7,17.8C33.7,17.8,33.7,17.8,33.7,17.8C33.7,17.8,33.7,17.8,33.7,17.8z
		 M32.9,17.5c0,0-0.1,0-0.1,0C32.8,17.5,32.9,17.5,32.9,17.5z M34.5,17.9C34.5,17.9,34.5,17.9,34.5,17.9
		C34.5,17.9,34.5,17.9,34.5,17.9z M34.5,18C34.5,18,34.5,18,34.5,18C34.5,18,34.5,18,34.5,18C34.5,18,34.5,18,34.5,18
		C34.5,18,34.5,18,34.5,18z M32,17.9c-0.3-0.5,1.5-0.1,2.1,0.3c0-0.1-0.3-0.2-0.1-0.2c-0.1,0-0.1-0.1,0-0.1c-0.1,0-0.1,0,0.1-0.1
		c-0.7,0.2-0.9-0.4-1.2-0.4c0.1,0,0.1,0,0-0.1c0,0,0,0-0.1-0.1c0.2,0.1,4.4-0.5,4.3,0.4c0,0,0,0,0,0.1c0,0.2-0.9,0.1-1.1,0.1
		c0.1,0,0.1,0,0.2,0.1c-0.6,0-0.9,0.5-1.6,0.5c-0.1,0,0.2,0.1,0.1,0c0.5,0.3-0.8,1.1-1.8,0.6c0,0,0-0.1,0-0.2c0-0.3,0.5,0,0.7-0.1
		c-0.1,0-0.1,0-0.1,0c-0.1,0,0,0,0.1-0.1c-0.1,0-0.4-0.1-0.4-0.2C32.7,18.7,32.3,18.4,32,17.9C32,18,32,18,32,17.9
		C32,17.9,32,17.9,32,17.9z M35,17.5C35,17.4,34.9,17.5,35,17.5L35,17.5z M33.7,17.5C33.6,17.4,33.7,17.5,33.7,17.5L33.7,17.5z
		 M33.7,17.8C33.7,17.8,33.7,17.8,33.7,17.8C33.3,17.8,33.5,17.9,33.7,17.8z M34.7,18.5C34.5,18.5,34.6,18.5,34.7,18.5L34.7,18.5z
		 M34.5,18.6C34.6,18.5,34.5,18.6,34.5,18.6L34.5,18.6z M34.5,18C34.5,18,34.5,18,34.5,18C34.6,17.9,34.6,17.9,34.5,18
		C34.5,17.9,34.5,17.9,34.5,18C34.5,17.9,34.5,17.9,34.5,18C34.5,17.9,34.5,18,34.5,18c0,0-0.1,0-0.2,0.1C34.1,18.1,34.4,18,34.5,18
		z M34,19C34.1,19,34,19,34,19L34,19z M33.6,18.9C33.7,18.9,33.6,18.9,33.6,18.9L33.6,18.9z M33.6,18.6
		C33.6,18.7,33.6,18.7,33.6,18.6L33.6,18.6z M33.5,18.4C33.4,18.5,33.6,18.4,33.5,18.4L33.5,18.4z M34.3,18C34.3,18,34.4,18,34.3,18
		L34.3,18z M32.7,18.9C32.7,18.9,32.7,18.9,32.7,18.9C32.7,18.9,33.1,18.8,32.7,18.9z M31.1,20.9C31.3,20.9,31,20.9,31.1,20.9
		C31.1,20.9,31.1,20.9,31.1,20.9z M33.2,21.8c0,0,0,0.1,0.1,0.1C33.4,21.9,33.2,21.9,33.2,21.8z M29.5,18.3
		C29.6,18.3,29.3,18.3,29.5,18.3L29.5,18.3z M35.1,22.9C35.1,22.9,35,22.9,35.1,22.9C34.9,22.8,35.1,22.9,35.1,22.9z M29.8,18.5
		C29.2,18.3,30.5,18.7,29.8,18.5L29.8,18.5z M30.9,20.9C30.9,21,30.9,20.9,30.9,20.9C30.8,20.9,30.8,20.9,30.9,20.9z M35.3,19.2
		c0,0,0.1,0,0.1,0C35.4,19.2,35.3,19.2,35.3,19.2z M34,21.3c0,0,0.1,0,0.1-0.1c0,0,0.1,0,0,0c0,0,0,0,0,0
		C34.1,21.2,34.1,21.2,34,21.3C34.1,21.2,34.1,21.2,34,21.3C34,21.2,34.1,21.2,34,21.3C34,21.3,34,21.3,34,21.3z M33.7,29.9
		C33.7,29.8,33.7,29.8,33.7,29.9C33.7,29.9,33.7,29.9,33.7,29.9z M44,25.8C44,25.9,44.1,25.8,44,25.8C44,25.8,44,25.8,44,25.8z
		 M43.9,25.3C43.9,25.3,43.9,25.4,43.9,25.3L43.9,25.3z M33,25.9c0,0-0.2-0.1-0.2,0C32.9,25.8,33,25.9,33,25.9z M32,40.6
		C32,40.6,32,40.6,32,40.6C32,40.7,32,40.6,32,40.6z M32.2,39.3C32.3,39.4,32.4,39.5,32.2,39.3L32.2,39.3z M32.2,40.9
		c0,0-0.2-0.1-0.2-0.1C32,40.8,32.2,40.9,32.2,40.9z M34.5,30.4C35,30.5,34.6,30.4,34.5,30.4L34.5,30.4z M34.5,30.4
		C34.5,30.4,34.6,30.4,34.5,30.4L34.5,30.4z M33.4,30C31.8,29.1,32.6,29.6,33.4,30L33.4,30z M33.4,30C33.4,30,33.3,30,33.4,30
		L33.4,30z M32.4,29.4C32.7,29.4,32.5,29.4,32.4,29.4L32.4,29.4z M43.2,26.1C44.8,25.9,43.1,26.1,43.2,26.1
		C43.2,26.1,43.2,26.1,43.2,26.1z M43.8,25.2C43.9,25.3,43.8,25.2,43.8,25.2C43.8,25.2,43.8,25.2,43.8,25.2z M44,26
		C44.1,26.5,44.2,26.8,44,26L44,26z M42,21.2C42,21.3,42,21.2,42,21.2L42,21.2z M44.3,28.9c-0.7,0.6,0.2-1,0.1-2.1
		c-0.1,0.1-0.2-0.1-0.3-0.1c-0.1,0-0.2,0.1-0.2,0.1c0,0.8-0.8,2.1-2.1,3.6c-0.3,0.4-0.2,1.1-0.3,1.5C40.2,35.9,45.6,27.8,44.3,28.9z
		 M24.2,22c0,0,0.1-0.1,0.1-0.1C24.3,21.9,24.2,21.9,24.2,22z M22.3,28.4C22.3,28.4,22.3,28.4,22.3,28.4
		C22.5,28.5,22.2,28.4,22.3,28.4z M23.6,22.2C23.7,22.4,23.4,22,23.6,22.2L23.6,22.2z M21.8,22.6C22.1,22.7,21.4,22.6,21.8,22.6
		L21.8,22.6z M21.5,22.8C21.5,22.9,21.5,23,21.5,22.8L21.5,22.8z M21.5,22.8C21.5,22.8,21.5,22.7,21.5,22.8L21.5,22.8z M26.4,23.8
		C26.3,23.7,26.4,23.8,26.4,23.8L26.4,23.8z M26.4,23.8C25.9,23.6,26.1,23.7,26.4,23.8L26.4,23.8z M30.9,19.2
		C30.7,19.2,30.7,19.3,30.9,19.2L30.9,19.2z M35.4,23.3C35.3,23.3,35.3,23.3,35.4,23.3C35.3,23.4,35.4,23.3,35.4,23.3z M31.2,18.4
		c-0.1,0,0,0.1,0.1,0.1C31.4,18.5,31.2,18.4,31.2,18.4z M35.8,23.2C35.9,22.9,35.7,23.5,35.8,23.2L35.8,23.2z M34.3,19.4
		C34.3,19.4,34.2,19.4,34.3,19.4C34.3,19.4,34.4,19.4,34.3,19.4z M31.8,18.3C32.4,18.9,32.2,18.7,31.8,18.3L31.8,18.3z M32.8,19
		C32.8,19,32.9,19,32.8,19C32.8,18.9,32.7,19,32.8,19z M31.1,20.8C31.2,20.7,31,20.8,31.1,20.8L31.1,20.8z M32.1,19.1
		C32.1,19.1,32.1,19.2,32.1,19.1C32.2,19.2,32.1,19.1,32.1,19.1z M31.1,19.7C30.3,20,32,20.4,31.8,20C31.6,19.6,31.5,19.6,31.1,19.7
		z M33.8,22.7C33.8,22.7,33.8,22.7,33.8,22.7C33.6,22.6,34,22.8,33.8,22.7z M32.3,19.3C32.3,19.3,32.3,19.3,32.3,19.3
		C31.8,18.9,32.4,19.4,32.3,19.3z M33.2,21.9C33.2,21.9,33.1,21.8,33.2,21.9C33.1,21.8,33.1,21.9,33.2,21.9z M33.5,22.5
		c0,0.1,0,0.1-0.1,0.1c-0.1,0.1-0.1,0.1,0,0c0,0.1,0,0.1,0,0c0.1,0,0.2-0.1,0.3-0.2c0,0-0.2,0.1-0.3,0.2
		C33.4,22.6,33.4,22.6,33.5,22.5z M32.7,19.2c0.2,0.1,0.5,0.2,1.3,0.3C33.7,19.4,33.2,19.3,32.7,19.2C32.8,19.2,32.7,19.2,32.7,19.2
		c0,0-0.1,0-0.1,0C32.6,19.1,32.7,19.2,32.7,19.2C32.7,19.2,32.7,19.2,32.7,19.2C32.7,19.2,32.7,19.2,32.7,19.2z M34.2,19.5
		C34.2,19.5,34.2,19.5,34.2,19.5L34.2,19.5z M31.9,18.9c0.4,0.1,0.5,0.2,0.7,0.3C32.3,19.1,32.1,19,32,19C32,19,32,18.9,31.9,18.9
		C31.8,18.9,31.9,18.9,31.9,18.9z M32.3,19C32.4,19,32.3,19,32.3,19L32.3,19z M34,19.5c0.1,0,0.2,0,0.2,0C34.1,19.5,34,19.5,34,19.5
		z M29.3,18.6C29.3,18.6,29.3,18.6,29.3,18.6L29.3,18.6z M30.6,18.9c-0.5-0.3-0.7-0.1-1.3-0.3c0,0-0.1,0-0.1,0c0,0-1-0.1-1-0.1
		c0.6,0.1,0.9,0.1,0.9,0.1C27.9,18.9,30.8,19,30.6,18.9z M34.1,22.5C34.1,22.6,34,22.7,34.1,22.5L34.1,22.5z M29.4,18.5
		C29.4,18.5,29.5,18.5,29.4,18.5C29.6,18.5,29.5,18.5,29.4,18.5z M35.4,19.1c0,0-0.1,0-0.1,0C35.3,19.1,35.4,19.1,35.4,19.1z
		 M34,21.2C34.1,21.2,34,21.2,34,21.2L34,21.2z M33.7,29.8C33.7,29.8,33.7,29.8,33.7,29.8C33.7,29.8,33.7,29.8,33.7,29.8z
		 M37.1,25.9C37.1,26,37.2,25.9,37.1,25.9L37.1,25.9z M37.1,26C37.1,26,37.1,26,37.1,26C37.1,25.9,37.1,25.9,37.1,26z M41.8,23.5
		c0,0.1,1,0.2,1.1,0c0.5-0.7-0.8-0.4-0.8-0.4C41.5,22.6,41.8,23.4,41.8,23.5z M44,25.8C44.1,25.8,44.1,25.7,44,25.8
		C44,25.8,44,25.8,44,25.8z M44,25.2C43.9,25.2,43.9,25.2,44,25.2C43.9,25.2,44,25.2,44,25.2z M43.9,25.3C44,25.3,44,25.3,43.9,25.3
		L43.9,25.3z M32.3,39.3C32.1,39.2,32.5,39.3,32.3,39.3L32.3,39.3z M22.1,22.6C22.2,22.5,22.2,22.5,22.1,22.6L22.1,22.6z M35.6,26.1
		C35.6,26.1,35.6,26.1,35.6,26.1L35.6,26.1z M26.9,20.2C27.1,20,26.8,20.2,26.9,20.2L26.9,20.2z M35.9,26.2
		c-0.1-0.1-0.2-0.1-0.3-0.1C35.7,26.2,35.7,26.3,35.9,26.2z M33.9,21.1C34.1,21,33.6,21.1,33.9,21.1C33.9,21.1,33.9,21.1,33.9,21.1z
		 M38.5,34.3c0.9,2.5-6.1,4.6-5.7,6.6c-0.5,0-0.5,0.1-0.9-0.2c0.1,0.1,0-0.2,0-0.4c0,0,0,0,0,0c0,0,0-0.1,0,0c0,0,0.1-0.1,0.1-0.1
		c0,0-0.1-0.1,0-0.1c0-0.1-0.1,0-0.1,0c0,0,0,0,0,0c0,0.1,0,0.1-0.1,0.1c0-0.1,0-0.1,0,0c0,0,0,0,0,0c0-0.1,0-0.1,0-0.1c0,0,0,0,0,0
		c-0.3-0.3,0.8-0.8,0.5-1.2c0.9,0.1-0.4-7.5,0.1-7.4c-0.7-0.2-4-1.9-4.2-3.5c0,0-0.1-0.5-0.3-0.4c0,0.3,0.7,1.2,0.5,1.4
		c0.1,0-1.9-4.5-2.4-5.7c0,0,0,0.1,0,0.1c0,0,0,0,0,0.1c0,0-0.1-0.2-0.1,0c0,0,0-0.1,0-0.1c0.1,0-0.1-0.5,0-0.6
		c-0.1,0.2,0,0.3-0.1,0.4c0.1-0.1,0-0.4-0.1-0.6c0,0,0,0,0,0c0,0,0,0.1,0,0.1c0,0,0,0,0,0h0c0,0,0,0,0,0c0,0.1,0,0.3,0,0.4
		c-0.4-0.5-2-1.3-2.1-1.3c-0.4,0.2-1,1.2-1.5,1c0,0,0-0.1-0.1,0c0,0,0,0,0,0c0,0-0.1,0-0.2,0.1c0.1,0,0.6-0.4,0.8-0.6c0,0,0,0,0-0.1
		c-0.1,0-0.2-0.1-0.1-0.1c-0.6-0.2-1.5-0.5-0.2-1.3c0.3,0.2,2.2-0.3,4.1-0.5c0,0,0,0.2,0,0c0,0,0,0,0,0c1.4-0.1,2.7,0,3.4,0.9
		c0,0,0,0.1,0,0.1c0,0,0-0.1,0,0c-0.1-0.2-0.2-0.5,0.3-0.4c-0.2-0.1-2.6-0.6-0.9-0.5c-0.3-0.1-1.3-0.4-0.6-0.7
		c-0.7,0.2-0.5,0.2-1.2,0.1c0.1,0,0.1-0.1,0-0.1c0.1,0,0.4-0.5,0.3-0.5c0.1,0,0.1,0,0-0.1c0.6,0,2.4,0.6,2.7,0.6
		c0,0.2-0.1,1,0.4,1.1c-0.5,0,0.2,0.3-0.7,0.1c0.8,0.6,0.9,0.1,0.9,0.1c0,0,0.1,0,0-0.1c0.1,0,0.2,0,0.2-0.2
		c0.3-0.2,0.2,0.7,0.2,0.6c0,0,0.1,0,0.1,0c-0.1-0.1,0.1-0.2,0.3-0.3c-0.6,0.3,0.1-1.3,0-1.4c0.1,0.1,0.1-0.1,0-0.1
		c0.1,0,0.6,0.1,0.6,0.1c-0.1,0-0.1,0.1,0,0.1c-0.2,1-0.4,0.8,0.1,1.4c-0.7,0.6,0.3,2.1,0.6,3.2c0.1,0,0.2,0,0,0c0,0.1,0,0.1,0,0.2
		c0,0,0,0,0,0c0,0.1,0,0.1,0,0.2c0.1,0,0.1,0,0.1,0.1c0.1-0.1,0,0,0.1,0c-0.1-0.3,0-0.6,0.2-0.9c0,0-0.1-0.1,0,0c0,0,0,0,0,0
		c0.2-0.4,0.4-0.7,0.3-1.2c0,0,2.2,1.3,1.9,0.6c0.2,0.6,1.3,2.5,1.3,2.5c-0.1,0.1,0,0.1,0,0.1c0,0,0,0,0,0c0,0,0,0,0,0l0,0
		C37.1,26,37,26,37,26.1c-0.1,0-0.1,0-0.2,0.1c0,0,0.2-0.1,0-0.1c0,0-0.5-0.1-0.5-0.1c-0.3-0.3,0.2,0.1,0-0.1c0,0,0.3-0.5,0.4-0.6
		c-0.3,0.1-0.6,0-1,0c0,0,0.1,0,0.1,0.1c0.3,0.3-0.1-0.1-0.1-0.1c-0.3,0-0.6,0.1-0.8,0.3c0.6-0.4,0.7,0.1,0.8,0.4c0,0,0,0,0,0
		c0,0,0,0,0,0c0,0,0,0,0,0c-1.4-0.3-1.7,2.4-2.8,3.1c-0.5,0.3-0.8,0.3-1,0.1c0,0.1,0,0.2,0,0.3c0.4,2.2,1,0.6,2,1.5
		c0,0-0.3,0.4-0.1,0.5C34.1,31.5,37.9,32.4,38.5,34.3C38.5,34.3,38.5,34.2,38.5,34.3C38.6,34.3,38.6,34.3,38.5,34.3z M34.8,25.7
		C34.9,25.6,34.8,25.7,34.8,25.7L34.8,25.7z M32.3,26.3C32.3,26.2,32.3,26.3,32.3,26.3L32.3,26.3z M33,26.4
		C32.4,26.6,33.7,26.2,33,26.4L33,26.4z M33.5,27.7C33.7,27.7,33.5,27.6,33.5,27.7L33.5,27.7z M33.5,27.6
		C33.5,27.6,33.6,27.5,33.5,27.6L33.5,27.6z M33.8,27C33.8,27.1,33.8,27,33.8,27L33.8,27z M33.7,27.4C33.7,27,33.7,27.1,33.7,27.4
		L33.7,27.4z M33.4,26.4C33.3,26.4,33.3,26.4,33.4,26.4L33.4,26.4z M32.9,25.8C32.1,25.6,33.9,26.4,32.9,25.8L32.9,25.8z M32,22.2
		C32,22.2,32.1,22.2,32,22.2L32,22.2z M25.8,22.5C25.9,22.5,25.9,22.5,25.8,22.5C25.9,22.6,25.9,22.6,25.8,22.5L25.8,22.5
		C25.9,22.6,25.9,22.6,25.8,22.5C25.9,22.6,25.9,22.6,25.8,22.5z M26.2,22.9C26.2,22.9,26.2,22.9,26.2,22.9
		C26.2,22.9,26.2,22.9,26.2,22.9C26.2,22.9,26.2,22.9,26.2,22.9z M26.2,22.9C26.2,22.9,26.2,22.9,26.2,22.9
		C26.2,22.9,26.2,22.9,26.2,22.9C26.2,22.9,26.2,22.9,26.2,22.9z M27.1,24.2C27,24.2,27.1,24.2,27.1,24.2L27.1,24.2z M27.4,24.6
		C27.7,24.8,27,24.3,27.4,24.6L27.4,24.6z M29.2,22.3C29.2,22.2,28.2,22.5,29.2,22.3L29.2,22.3z M30,21.1C30,21.1,29.9,21.1,30,21.1
		L30,21.1z M30.1,20.9C30,20.9,30.1,20.9,30.1,20.9L30.1,20.9z M31.1,24.3C31.1,24.4,31.1,24.4,31.1,24.3
		C30.7,23.6,31.2,24.7,31.1,24.3z M31.2,24.6C31.1,24.3,31.1,24.9,31.2,24.6L31.2,24.6z M32.6,31.4C32.7,31.4,32.7,31.4,32.6,31.4
		L32.6,31.4z M32.1,39.8C32.1,39.8,32.1,39.8,32.1,39.8C32.1,39.8,32.1,39.8,32.1,39.8z M32.1,40.4C32.2,40.4,32.1,40.4,32.1,40.4
		L32.1,40.4z M32.2,40.6C32.2,40.7,32.2,40.5,32.2,40.6L32.2,40.6z M32.4,40.8C32.5,40.8,32.4,40.7,32.4,40.8L32.4,40.8z M36.3,33.3
		C36.3,33.4,36.4,33.3,36.3,33.3L36.3,33.3z M36.4,33.2C36.2,33.2,36.6,33.2,36.4,33.2L36.4,33.2z M32,40.3C32,40.3,32,40.3,32,40.3
		C32,40.3,32,40.3,32,40.3C32,40.3,32,40.3,32,40.3C32,40.2,32,40.3,32,40.3z M30.6,19.5C30.6,19.5,30.6,19.6,30.6,19.5
		C30.7,19.6,30.7,19.6,30.6,19.5z M26.6,20.2C26.6,20.2,26.6,20.2,26.6,20.2C26.6,20.2,26.6,20.2,26.6,20.2z M26.8,20.1
		C26.7,20.1,26.6,20.1,26.8,20.1L26.8,20.1z M36.5,22.1C36.5,22.1,36.5,22.1,36.5,22.1C36.5,22.1,36.5,22.1,36.5,22.1z M34,20.2
		C34,20.2,34.1,20.3,34,20.2L34,20.2z M33.5,21c-0.1,0-0.3,0-0.4,0.1c-0.5-0.5-0.7-0.8,0.2-1.1c0,0,0,0,0.1,0.1
		c-0.2,0.1-0.3,0.3-0.2,0.4c0.7,0,3.1,0.3,3.3,1.7c0,0,0,0.2,0,0.1c0,0-0.2,0.1-0.1,0.1c-0.2,0,0,0-0.1,0c0,0-0.3,0.1-0.1,0.2
		c-0.1-0.1-0.5-0.5-0.5-0.4c0,0,0,0.1,0,0.1c0.4,0.1,0.3,0.7,0.3,0.7c-0.1-0.1-0.1,0,0,0.1c-0.4-0.2-0.6-0.2-0.2,0.1
		c-0.2-0.2-1.6-0.7-1.6-0.8c-0.1-0.2,0.2-0.4,0.4-0.6c-0.2,0-0.1,0,0,0c0.1-0.1,0.2-0.3,0-0.5c0,0,0,0,0,0c0,0,0,0,0,0
		c-0.1-0.1-0.4-0.2-0.7-0.3C33.8,21,33.6,21,33.5,21z M35.2,21.1C35.2,21,35.2,21,35.2,21.1L35.2,21.1z M35.4,22.7
		C35.4,22.8,35.4,22.6,35.4,22.7L35.4,22.7z M35.2,21C35.3,21,35.2,20.9,35.2,21L35.2,21z M35.1,20.9C35.1,20.9,35.1,20.9,35.1,20.9
		C35.2,20.9,35.1,20.9,35.1,20.9z M33.3,20.9C33.1,20.9,33.4,20.9,33.3,20.9L33.3,20.9z M33.3,20.5C33.2,20.5,33.5,20.6,33.3,20.5
		L33.3,20.5z M36.1,26.3C36.2,26.2,36,26.2,36.1,26.3c0.1-0.1-0.1-0.1,0-0.1c0,0,0,0,0-0.1c-0.1,0.1-0.1,0.1-0.1,0.1
		C36,26.2,36,26.2,36.1,26.3C36,26.2,36,26.3,36.1,26.3z M33.3,19.9C33.4,19.9,33.4,19.9,33.3,19.9C33.4,19.9,33.3,19.9,33.3,19.9z
		 M33,21.4C32.9,21.5,33.1,21,33,21.4c0.1-0.2,0.2-0.2,0.3-0.3c0,0-0.1-0.1-0.1-0.1c-0.2,0.1-0.3,0.1-0.5,0.2c0,0.1,0.1,0.1,0.2,0.2
		C32.9,21.5,32.9,21.5,33,21.4z M34,20.2C34.5,20.7,34.1,20.3,34,20.2L34,20.2z M35.6,26.1C35.6,26.1,35.6,26.2,35.6,26.1L35.6,26.1
		z M34.7,20.6C34.7,20.5,34.6,20.6,34.7,20.6C34.6,20.6,34.6,20.6,34.7,20.6z M32.9,25.8C32.9,25.8,33,25.8,32.9,25.8L32.9,25.8z
		 M32.5,21.8C32.7,22,32.6,21.8,32.5,21.8L32.5,21.8z M35.1,20.9C35.1,20.9,35.1,20.9,35.1,20.9C35.1,20.9,35.1,20.9,35.1,20.9z
		 M31.1,24.3C31.1,24.3,31.1,24.3,31.1,24.3C31.1,24.3,31.1,24.3,31.1,24.3z M34.7,30.4C34.8,30.4,34.7,30.3,34.7,30.4L34.7,30.4z
		 M34.7,30.4C34.6,30.3,34.5,30.2,34.7,30.4L34.7,30.4z M34.3,30.2C34.2,30.2,34.3,30.2,34.3,30.2L34.3,30.2z M34.3,30.2
		C33.9,30,33.1,29.8,34.3,30.2L34.3,30.2z M33.2,30.2C33.3,30.3,32.8,29.9,33.2,30.2L33.2,30.2z M37.7,21.1
		C37.7,21.1,37.7,21.2,37.7,21.1C37.7,21.2,37.7,21.2,37.7,21.1z M35.5,19.1c0,0,0.1,0,0.1,0C35.6,19.1,35.5,19.1,35.5,19.1z
		 M43.9,25.1C43.9,25.1,43.8,25.1,43.9,25.1L43.9,25.1z"/>
	<line id="XMLID_47_" class="st0" x1="31.5" y1="43.1" x2="31.5" y2="47.8"/>
	<path id="XMLID_49_" class="st5" d="M40.6,49.5L40.6,49.5c0-0.9-0.7-1.6-1.6-1.6H23.9c-0.9,0-1.6,0.7-1.6,1.6l0,0H40.6z"/>
	<path id="XMLID_13_" class="st0" d="M40.6,49.5L40.6,49.5c0-0.9-0.7-1.6-1.6-1.6H23.9c-0.9,0-1.6,0.7-1.6,1.6l0,0H40.6z"/>
	<circle id="XMLID_50_" class="st4" cx="19.9" cy="16.8" r="1.5"/>
	<circle id="XMLID_51_" class="st4" cx="43.6" cy="40.9" r="1.5"/>
	<circle id="XMLID_52_" class="st6" cx="30.1" cy="24.6" r="1.6"/>
	<circle id="XMLID_54_" class="st6" cx="34.7" cy="34" r="0.9"/>
	<circle id="XMLID_55_" class="st6" cx="35.2" cy="24.2" r="0.9"/>
	<circle id="XMLID_57_" class="st6" cx="31.7" cy="30.1" r="0.9"/>
	<circle id="XMLID_56_" class="st6" cx="32.3" cy="20.4" r="0.6"/>
</g>
<g id="XMLID_80_" class="st7">
	<path id="XMLID_954_" class="st8" d="M40.5,51.5c-1.6,0-1.6-2-3.2-2c-1.6,0-1.6,2-3.2,2c-1.6,0-1.6-2-3.2-2c-1.6,0-1.6,2-3.2,2
		s-1.6-2-3.2-2"/>
	<path id="XMLID_81_" class="st8" d="M48.7,44.2c-1.6,0-1.6-2-3.2-2c-1.6,0-1.6,2-3.2,2c-1.6,0-1.6-2-3.2-2c-1.6,0-1.6,2-3.2,2
		c-1.6,0-1.6-2-3.2-2"/>
	<path id="XMLID_84_" class="st8" d="M43.6,47.5c1.4,0,1.4-1.4,2.8-1.4c1.4,0,1.4,1.4,2.8,1.4"/>
	<path id="XMLID_83_" class="st8" d="M18.2,40.3c1.4,0,1.4-1.4,2.8-1.4c1.4,0,1.4,1.4,2.8,1.4"/>
	<path id="XMLID_86_" class="st8" d="M42,39.9c1.4,0,1.4-1.4,2.8-1.4c1.4,0,1.4,1.4,2.8,1.4"/>
	<path id="XMLID_64_" class="st9" d="M30.3,15c0,0,0,0.1-0.1,0.2c-0.1,0.2-0.1,0.4-0.2,0.7c-0.2,0.6-0.4,1.5-0.6,2.5
		c-0.1,0.5-0.2,1.1-0.3,1.7c-0.1,0.6-0.1,1.3-0.2,1.9c0,0.7,0,1.4,0,2c0.1,0.7,0,1.4,0.2,2.1l0.1,1c0.1,0.3,0.1,0.7,0.2,1
		c0.1,0.3,0.1,0.7,0.2,1c0.1,0.3,0.2,0.6,0.3,0.9c0.1,0.3,0.2,0.6,0.3,0.9c0.1,0.3,0.2,0.6,0.4,0.8c0.1,0.3,0.2,0.5,0.3,0.8
		c0.1,0.2,0.3,0.5,0.4,0.7c0.3,0.4,0.5,0.8,0.7,1.2c0.2,0.3,0.4,0.6,0.6,0.9c0.3,0.5,0.5,0.7,0.5,0.7l2,2.3h-5.3c0,0-0.2-0.4-0.5-1
		c-0.2-0.3-0.4-0.7-0.6-1.1c-0.2-0.4-0.4-1-0.6-1.5c-0.1-0.3-0.2-0.6-0.3-0.9c-0.1-0.3-0.2-0.6-0.3-1c-0.1-0.3-0.2-0.7-0.3-1
		c-0.1-0.3-0.1-0.7-0.2-1.1c-0.1-0.4-0.1-0.7-0.2-1.1c0-0.4-0.1-0.8-0.1-1.1c0-0.4-0.1-0.8-0.1-1.2l0-1.2c0-0.8,0.1-1.5,0.1-2.3
		c0.1-0.7,0.2-1.5,0.3-2.2c0.2-0.7,0.3-1.4,0.5-2c0.2-0.6,0.3-1.2,0.5-1.7c0.4-1.1,0.7-1.9,1-2.5c0.1-0.3,0.2-0.5,0.3-0.7
		c0.1-0.2,0.1-0.2,0.1-0.2L30.3,15z"/>
	<path id="XMLID_67_" class="st8" d="M29.4,38.5c0,0,0.3-0.4-0.1-1c-0.2-0.3-0.4-0.7-0.6-1.1c-0.2-0.4-0.4-1-0.6-1.5
		c-0.1-0.3-0.2-0.6-0.3-0.9c-0.1-0.3-0.2-0.6-0.3-1c-0.1-0.3-0.2-0.7-0.3-1c-0.1-0.3-0.1-0.7-0.2-1.1c-0.1-0.4-0.1-0.7-0.2-1.1
		c0-0.4-0.1-0.8-0.1-1.1c0-0.4-0.1-0.8-0.1-1.2l0-1.2c0-0.8,0.1-1.5,0.1-2.3c0.1-0.7,0.2-1.5,0.3-2.2c0.2-0.7,0.3-1.4,0.5-2
		c0.2-0.6,0.3-1.2,0.5-1.7c0.4-1.1,0.7-1.9,1-2.5c0.1-0.3,0.2-0.5,0.3-0.7c0.1-0.2,0.1-0.2,0.1-0.2l0.7,0.3c0,0,0,0.1-0.1,0.2
		c-0.1,0.2-0.1,0.4-0.2,0.7c-0.2,0.6-0.4,1.5-0.6,2.5c-0.1,0.5-0.2,1.1-0.3,1.7c-0.1,0.6-0.1,1.3-0.2,1.9c0,0.7,0,1.4,0,2
		c0.1,0.7,0,1.4,0.2,2.1l0.1,1c0.1,0.3,0.1,0.7,0.2,1c0.1,0.3,0.1,0.7,0.2,1c0.1,0.3,0.2,0.6,0.3,0.9c0.1,0.3,0.2,0.6,0.3,0.9
		c0.1,0.3,0.2,0.6,0.4,0.8c0.1,0.3,0.2,0.5,0.3,0.8c0.1,0.2,0.3,0.5,0.4,0.7c0.3,0.4,0.5,0.8,0.7,1.2c0.2,0.3,0.4,0.6,0.6,0.9
		c0.3,0.5,0.5,0.7,0.5,0.7l2,2.1"/>
	<circle id="XMLID_73_" class="st10" cx="29.3" cy="17.3" r="1.4"/>
	<circle id="XMLID_65_" class="st11" cx="30.5" cy="16.1" r="1.4"/>
	<path id="XMLID_59_" class="st12" d="M42.4,14.7L42.4,14.7c0-1.2-1-2.2-2.2-2.2h-8.6c-1.2,0-2.2,1-2.2,2.2l0,0H42.4z"/>
	<path id="XMLID_63_" class="st12" d="M17,17.5L17,17.5c-0.3-1.2,0.5-2.3,1.6-2.6l8.4-1.9c1.2-0.3,2.3,0.5,2.6,1.6l0,0L17,17.5z"/>
	<path id="XMLID_61_" class="st12" d="M27,20.1l-1,2.1c-1.1-0.5-1.5-1.8-1-2.9l1.8-3.6c0.5-1.1,1.8-1.5,2.9-1l0,0L27,20.1z"/>
	<path id="XMLID_66_" class="st12" d="M31.9,20.1l1,2.1c1.1-0.5,1.5-1.8,1-2.9l-1.8-3.6c-0.5-1.1-1.8-1.5-2.9-1l0,0L31.9,20.1z"/>
	<line id="XMLID_75_" class="st8" x1="27.6" y1="27.1" x2="29.3" y2="27.1"/>
	<line id="XMLID_76_" class="st8" x1="28.6" y1="31.4" x2="30.3" y2="31.4"/>
	<line id="XMLID_78_" class="st8" x1="30.3" y1="35.6" x2="32.6" y2="35.6"/>
	<line id="XMLID_74_" class="st8" x1="27" y1="29.6" x2="28.7" y2="29.6"/>
	<line id="XMLID_79_" class="st8" x1="26.7" y1="24.5" x2="28.4" y2="24.5"/>
	<line id="XMLID_77_" class="st8" x1="27.8" y1="33.9" x2="30.3" y2="33.9"/>
	<path id="XMLID_82_" class="st8" d="M21,42.4c1.9-2,5-3.7,8.8-4c1.3-0.1,3.8-0.2,5.1-0.2c4.6,0.1,8.6,1.9,10.8,4.2"/>
	<path id="XMLID_953_" class="st8" d="M14.7,42.4c1.6,0,1.6,1.6,3.2,1.6c1.6,0,1.6-1.6,3.2-1.6c1.6,0,1.6,1.6,3.2,1.6
		c1.6,0,1.6-1.6,3.2-1.6c1.6,0,1.6,1.6,3.2,1.6"/>
	<path id="XMLID_85_" class="st8" d="M29.2,47.5c1.6,0,1.6-1.6,3.2-1.6c1.6,0,1.6,1.6,3.2,1.6c1.6,0,1.6-1.6,3.2-1.6
		c1.6,0,1.6,1.6,3.2,1.6"/>
	<path id="XMLID_87_" class="st8" d="M15.6,47.5c1.6,0,1.6-1.6,3.2-1.6c1.6,0,1.6,1.6,3.2,1.6c1.6,0,1.6-1.6,3.2-1.6
		s1.6,1.6,3.2,1.6"/>
	<path id="XMLID_60_" class="st13" d="M40.6,21.1L40.6,21.1c0.6-1,0.2-2.4-0.8-3l-7.5-4.3c-1-0.6-2.4-0.2-3,0.8l0,0L40.6,21.1z"/>
	<path id="XMLID_62_" class="st13" d="M18.4,21.1L18.4,21.1c-0.6-1-0.2-2.4,0.8-3l7.5-4.3c1-0.6,2.4-0.2,3,0.8l0,0L18.4,21.1z"/>
</g>
<g id="XMLID_106_" class="st7">
	<rect id="XMLID_113_" x="18.9" y="24.9" class="st14" width="5.5" height="1.7"/>
	<circle id="XMLID_112_" class="st15" cx="34.3" cy="35.8" r="3"/>
	<path id="XMLID_111_" class="st14" d="M41.5,29.6H27.3l1.2-5.9c0.3-1.3,1.4-2.3,2.8-2.3h6.3c1.3,0,2.5,0.9,2.7,2.2L41.5,29.6z"/>
	<polygon id="XMLID_110_" class="st16" points="27.3,29.6 41.5,29.6 40.5,24.8 28.2,24.8 	"/>
	<rect id="XMLID_109_" x="15.8" y="25.8" class="st9" width="32.4" height="20.8"/>
	<circle id="XMLID_105_" class="st11" cx="34.3" cy="35.8" r="8.8"/>
	<circle id="XMLID_104_" class="st8" cx="34.3" cy="35.8" r="8.8"/>
	<circle id="XMLID_103_" class="st8" cx="34.3" cy="35.8" r="7.4"/>
	<circle id="XMLID_99_" class="st17" cx="34.3" cy="35.8" r="3"/>
	<circle id="XMLID_98_" class="st8" cx="34.3" cy="35.8" r="3"/>
	<rect id="XMLID_89_" x="30.8" y="22.8" class="st17" width="7.1" height="1.6"/>
	<rect id="XMLID_90_" x="19.2" y="28.7" class="st12" width="5.5" height="2.3"/>
	<polyline id="XMLID_91_" class="st8" points="16.2,25.8 16.2,46.4 48.2,46.4 	"/>
	<line id="XMLID_94_" class="st8" x1="34.4" y1="17.4" x2="34.4" y2="20.1"/>
	<line id="XMLID_93_" class="st8" x1="37.5" y1="18.2" x2="36.1" y2="20.5"/>
	<line id="XMLID_95_" class="st8" x1="39.7" y1="20.5" x2="37.4" y2="21.8"/>
	<line id="XMLID_107_" class="st8" x1="28.8" y1="20.8" x2="31.2" y2="22"/>
	<line id="XMLID_108_" class="st8" x1="31" y1="18.4" x2="32.4" y2="20.7"/>
	
		<ellipse id="XMLID_92_" transform="matrix(0.7167 0.6974 -0.6974 0.7167 33.6498 -13.5231)" class="st18" cx="33.5" cy="34.7" rx="0.7" ry="0.9"/>
</g>
<g id="XMLID_100_" class="st7">
	<line id="XMLID_132_" class="st8" x1="14.8" y1="28.6" x2="14.8" y2="30.3"/>
	<line id="XMLID_129_" class="st8" x1="12.6" y1="21.2" x2="12.1" y2="25.3"/>
	<line id="XMLID_136_" class="st8" x1="17" y1="21.2" x2="17.5" y2="25.3"/>
	<line id="XMLID_163_" class="st8" x1="14.8" y1="21.7" x2="14.8" y2="25.5"/>
	<path id="XMLID_138_" class="st19" d="M50.1,33.8V19.6c0,0,1.4,0.2,1.8,1.6v10.1l-0.6,0.8v1.6L50.1,33.8z"/>
	<path id="XMLID_137_" class="st18" d="M50.9,19.8c-0.4-0.2-0.6-0.2-0.6-0.2v14.3l0.6-0.1V19.8z"/>
	<path id="XMLID_135_" class="st8" d="M50.1,33.8V19.6c0,0,1.4,0.2,1.8,1.6v10.1l-0.6,0.8v1.6L50.1,33.8z"/>
	<circle id="XMLID_162_" class="st12" cx="33.6" cy="32.2" r="14.4"/>
	<path id="XMLID_96_" class="st8" d="M43.8,42.4c-2.6,2.6-6.2,4.2-10.2,4.2c-4,0-7.6-1.6-10.2-4.2c-2.6-2.6-4.2-6.2-4.2-10.2
		c0-4,1.6-7.6,4.2-10.2"/>
	<circle id="XMLID_159_" class="st18" cx="33.6" cy="32.2" r="10"/>
	<circle id="XMLID_158_" class="st12" cx="33.6" cy="32.2" r="9.5"/>
	<circle id="XMLID_157_" class="st18" cx="33.6" cy="32.2" r="8.6"/>
	<path id="XMLID_134_" class="st11" d="M51.9,44.6c0,0.4-0.3,0.7-0.7,0.7h-1c-0.4,0-0.7-0.3-0.7-0.7V32.8h2.4V44.6z"/>
	<path id="XMLID_133_" class="st20" d="M50.7,32.8h-1.2v11.8c0,0.4,0.3,0.7,0.6,0.7h0.6V32.8z"/>
	<path id="XMLID_127_" class="st20" d="M15.9,30.3l0.4,12.4c0,0.5-0.4,0.8-0.8,0.8h-1.4c-0.5,0-0.8-0.4-0.8-0.8l0.4-12.4H15.9z"/>
	<path id="XMLID_126_" class="st11" d="M15.9,30.3h-1.3v13.3h0.9c0.5,0,0.8-0.4,0.8-0.8L15.9,30.3z"/>
	<path id="XMLID_130_" class="st9" d="M17.5,26.1c0,1.3-1.2,2.3-2.7,2.3c-1.5,0-2.7-1-2.7-2.3v-0.8h5.5V26.1z"/>
	<path id="XMLID_128_" class="st8" d="M17.5,26.1c0,1.3-1.2,2.3-2.7,2.3c-1.5,0-2.7-1-2.7-2.3v-0.8h5.5V26.1z"/>
	<line id="XMLID_97_" class="st8" x1="17.6" y1="12.7" x2="49.7" y2="12.7"/>
	<line id="XMLID_88_" class="st8" x1="17.6" y1="51.3" x2="49.7" y2="51.3"/>
</g>
<g id="XMLID_140_" class="st7">
	<rect id="XMLID_101_" x="12.5" y="12.8" class="st11" width="24" height="32.4"/>
	<polyline id="XMLID_114_" class="st8" points="36.5,13.4 12.9,13.4 12.9,37.7 	"/>
	<g id="XMLID_263_" class="st21">
		<circle id="XMLID_280_" class="st22" cx="24.5" cy="29" r="6.7"/>
		<path id="XMLID_279_" class="st22" d="M26.8,22.7c1,1.7,1.6,3.9,1.6,6.3c0,2.4-0.6,4.7-1.7,6.3"/>
		<path id="XMLID_278_" class="st22" d="M22.3,22.7c-1,1.7-1.6,3.9-1.6,6.3c0,2.4,0.6,4.7,1.7,6.3"/>
		<line id="XMLID_277_" class="st22" x1="24.5" y1="22.3" x2="24.5" y2="35.8"/>
		<line id="XMLID_276_" class="st22" x1="17.7" y1="29" x2="31.2" y2="29"/>
		<line id="XMLID_275_" class="st22" x1="18.8" y1="25.8" x2="30.4" y2="25.8"/>
		<line id="XMLID_274_" class="st22" x1="18.5" y1="32.2" x2="30.3" y2="32.2"/>
	</g>
	<polygon id="XMLID_117_" class="st9" points="25.3,51.2 14,51.2 12.5,49.9 12.5,40.2 13.5,39.3 25.3,39.3 26.3,40.2 26.3,50.4 	"/>
	<polygon id="XMLID_116_" class="st9" points="50,51.2 27.3,51.2 26.3,50.4 26.3,40.2 27.3,39.3 50.5,39.3 51.5,40.2 51.5,49.9 	"/>
	<polygon id="XMLID_147_" class="st12" points="13.5,39.3 12.5,40.2 12.5,42.2 26.3,42.2 26.3,40.2 25.3,39.3 	"/>
	<polygon id="XMLID_143_" class="st12" points="51.5,42.2 51.5,40.2 50.5,39.3 27.3,39.3 26.3,40.2 26.3,42.2 	"/>
	<polygon id="XMLID_145_" class="st12" points="12.5,47.8 12.5,49.9 14,51.2 25.3,51.2 26.3,50.4 26.3,47.8 	"/>
	<polygon id="XMLID_146_" class="st12" points="26.3,47.8 26.3,50.4 27.3,51.2 50,51.2 51.5,49.9 51.5,47.8 	"/>
	<polyline id="XMLID_118_" class="st8" points="26.2,49.7 27.2,50.6 50,50.6 51,49.7 51,40.8 	"/>
	<line id="XMLID_121_" class="st8" x1="23.2" y1="44.1" x2="15.5" y2="44.1"/>
	<line id="XMLID_125_" class="st8" x1="23.2" y1="46.4" x2="15.5" y2="46.4"/>
	<line id="XMLID_139_" class="st8" x1="48.2" y1="44.1" x2="30.6" y2="44.1"/>
	<line id="XMLID_131_" class="st8" x1="48.2" y1="46.3" x2="30.6" y2="46.3"/>
	<rect id="XMLID_102_" x="25.7" y="48.7" class="st23" width="1.1" height="1.1"/>
	<rect id="XMLID_120_" x="25.7" y="46.7" class="st23" width="1.1" height="1.1"/>
	<rect id="XMLID_122_" x="25.7" y="44.7" class="st23" width="1.1" height="1.1"/>
	<rect id="XMLID_123_" x="25.7" y="42.6" class="st23" width="1.1" height="1.1"/>
	<rect id="XMLID_124_" x="25.7" y="40.6" class="st23" width="1.1" height="1.1"/>
	<polyline id="XMLID_115_" class="st8" points="12.9,40.9 12.9,49.7 13.9,50.7 25.3,50.7 26.3,49.7 	"/>
</g>
<g id="XMLID_179_" class="st7">
	<line id="XMLID_181_" class="st8" x1="34.1" y1="16.8" x2="48.1" y2="16.8"/>
	<line id="XMLID_183_" class="st8" x1="14.4" y1="47.3" x2="28.4" y2="47.3"/>
	<line id="XMLID_180_" class="st8" x1="20.6" y1="13.9" x2="42" y2="13.9"/>
	<line id="XMLID_182_" class="st8" x1="18.7" y1="13.9" x2="13.3" y2="13.9"/>
	<line id="XMLID_184_" class="st8" x1="30" y1="50.1" x2="24.7" y2="50.1"/>
	<line id="XMLID_185_" class="st8" x1="31.4" y1="50.1" x2="50.7" y2="50.1"/>
	<path id="XMLID_253_" class="st16" d="M21.2,21.8L20.9,22c-0.4,0.4-0.9,0.4-1.3,0l-2.2-2.2c-0.4-0.4-0.4-0.9,0-1.3l0.2-0.2
		c0.4-0.4,0.9-0.4,1.3,0l2.2,2.2C21.5,20.8,21.5,21.4,21.2,21.8z"/>
	<path id="XMLID_265_" class="st16" d="M41.5,21.8l0.2,0.2c0.4,0.4,0.9,0.4,1.3,0l2.2-2.2c0.4-0.4,0.4-0.9,0-1.3l-0.2-0.2
		c-0.4-0.4-0.9-0.4-1.3,0l-2.2,2.2C41.1,20.8,41.1,21.4,41.5,21.8z"/>
	<path id="XMLID_268_" class="st16" d="M21.2,42.5l-0.2-0.2c-0.4-0.4-0.9-0.4-1.3,0l-2.2,2.2c-0.4,0.4-0.4,0.9,0,1.3l0.2,0.2
		c0.4,0.4,0.9,0.4,1.3,0l2.2-2.2C21.5,43.5,21.5,42.9,21.2,42.5z"/>
	<path id="XMLID_266_" class="st16" d="M41.5,42.5l0.2-0.2c0.4-0.4,0.9-0.4,1.3,0l2.2,2.2c0.4,0.4,0.4,0.9,0,1.3L44.9,46
		c-0.4,0.4-0.9,0.4-1.3,0l-2.2-2.2C41.1,43.5,41.1,42.9,41.5,42.5z"/>
	<path id="XMLID_252_" class="st14" d="M31.4,15.3c-9.2,0-16.7,7.5-16.7,16.7c0,9.2,7.5,16.7,16.7,16.7c9.2,0,16.7-7.5,16.7-16.7
		C48.1,22.8,40.6,15.3,31.4,15.3z M31.4,42.8c-6,0-10.8-4.8-10.8-10.8s4.8-10.8,10.8-10.8S42.2,26.1,42.2,32S37.4,42.8,31.4,42.8z"
		/>
	<path id="XMLID_272_" class="st12" d="M41,37c-1,2-2.7,3.6-4.6,4.6l4.3,4.3c1.8-1.2,3.4-2.8,4.6-4.6L41,37z"/>
	<path id="XMLID_273_" class="st12" d="M21.8,27.1c1-2,2.7-3.6,4.6-4.6l-4.3-4.3c-1.8,1.2-3.4,2.8-4.6,4.6L21.8,27.1z"/>
	<path id="XMLID_267_" class="st12" d="M40.7,18.1l-4.3,4.3c2,1,3.6,2.7,4.6,4.6l4.3-4.3C44.1,20.9,42.5,19.4,40.7,18.1z"/>
	<line id="XMLID_261_" class="st8" x1="40.7" y1="18.1" x2="36.4" y2="22.4"/>
	<line id="XMLID_259_" class="st8" x1="41" y1="27.1" x2="45.3" y2="22.8"/>
	<path id="XMLID_269_" class="st12" d="M21.8,37l-4.3,4.3c1.2,1.8,2.8,3.4,4.6,4.6l4.3-4.3C24.5,40.6,22.8,39,21.8,37z"/>
	<line id="XMLID_260_" class="st8" x1="36.4" y1="41.6" x2="40.7" y2="45.9"/>
	<line id="XMLID_238_" class="st8" x1="45.3" y1="41.3" x2="41" y2="37"/>
	<line id="XMLID_254_" class="st8" x1="17.5" y1="22.8" x2="21.8" y2="27.1"/>
	<line id="XMLID_237_" class="st8" x1="26.4" y1="22.4" x2="22.1" y2="18.1"/>
	<line id="XMLID_262_" class="st8" x1="22.1" y1="45.9" x2="26.4" y2="41.6"/>
	<line id="XMLID_232_" class="st8" x1="21.8" y1="37" x2="17.5" y2="41.3"/>
	<g id="XMLID_178_" class="st21">
		<path id="XMLID_142_" class="st0" d="M37.9,34.5c0,3.6-2.9,6.5-6.5,6.5s-6.5-2.9-6.5-6.5"/>
		<line id="XMLID_144_" class="st0" x1="31.4" y1="26.1" x2="31.4" y2="40.9"/>
		<line id="XMLID_148_" class="st0" x1="28.6" y1="29.3" x2="34.2" y2="29.3"/>
		<circle id="XMLID_141_" class="st0" cx="31.4" cy="24.6" r="1.5"/>
		<polyline id="XMLID_176_" class="st0" points="23.8,35.2 24.9,34 26.1,35.2 		"/>
		<polyline id="XMLID_177_" class="st0" points="36.7,35.2 37.9,34 39.1,35.2 		"/>
	</g>
</g>
<g id="XMLID_192_" class="st7">
	<polygon id="XMLID_191_" class="st9" points="51.7,51.1 12.3,51.1 20.6,41.2 43,41.2 	"/>
	<polygon id="XMLID_194_" class="st12" points="14.5,50.1 21,42.4 42.6,42.4 49.4,50.1 	"/>
	<path id="XMLID_193_" class="st8" d="M38.5,41.7h4.4c0,0,0.1,0,0.1,0.1l8.4,9c0.1,0.1,0,0.3-0.1,0.3H12.6c-0.1,0-0.2-0.2-0.1-0.3
		l8-9c0,0,0.1-0.1,0.1-0.1h5.3"/>
	<path id="XMLID_187_" class="st11" d="M32,12.9c-7.3,0-13.1,5.9-13.1,13.1c0,7.3,13.1,22.1,13.1,22.1s13.1-14.8,13.1-22.1
		C45.1,18.8,39.3,12.9,32,12.9z M32,32.4c-4.2,0-7.6-3.4-7.6-7.6s3.4-7.6,7.6-7.6c4.2,0,7.6,3.4,7.6,7.6S36.2,32.4,32,32.4z"/>
	<path id="XMLID_190_" class="st8" d="M19.5,24.5c0.5-6.4,6.2-11,12.5-11"/>
	<g id="XMLID_772_" class="st21">
		<path id="XMLID_773_" class="st24" d="M32,12.9c-0.1,0-0.2,0-0.4,0c7.1,0.2,12.8,6,12.8,13.1c0,6.5-10.6,19.2-12.8,21.6
			c0.2,0.3,0.4,0.4,0.4,0.4s13.1-14.8,13.1-22.1S39.3,12.9,32,12.9z"/>
		<path id="XMLID_774_" class="st24" d="M31.6,17.2c-0.1,0-0.2,0-0.4,0c-4.2,0-7.6,3.4-7.6,7.6s3.4,7.6,7.6,7.6c0.1,0,0.2,0,0.4,0
			c-4-0.2-7.2-3.5-7.2-7.6C24.4,20.7,27.6,17.4,31.6,17.2z"/>
	</g>
</g>
<g id="XMLID_233_" class="st7">
	<path id="XMLID_197_" class="st8" d="M45.7,33.8L32.1,18.5c-0.2-0.2-0.5-0.2-0.7,0L17.9,33.8"/>
	<rect id="XMLID_195_" x="15.7" y="30.8" class="st14" width="32.1" height="16.8"/>
	<g id="XMLID_199_" class="st21">
		<path id="XMLID_200_" class="st4" d="M20,44.6v-5h0.8v2.2h2.5v-2.2h0.8v5h-0.8v-2h-2.5v2H20z"/>
		<path id="XMLID_202_" class="st4" d="M29.7,43.9c-0.5,0.5-1.1,0.7-1.9,0.7c-0.7,0-1.4-0.2-1.9-0.7c-0.5-0.5-0.8-1.1-0.8-1.8
			c0-0.7,0.3-1.3,0.8-1.8c0.5-0.5,1.1-0.7,1.9-0.7c0.7,0,1.4,0.2,1.9,0.7c0.5,0.5,0.8,1.1,0.8,1.8C30.5,42.8,30.2,43.4,29.7,43.9z
			 M29.1,40.8c-0.3-0.4-0.8-0.5-1.3-0.5s-0.9,0.2-1.3,0.5c-0.3,0.4-0.5,0.8-0.5,1.3c0,0.5,0.2,0.9,0.5,1.3c0.3,0.4,0.8,0.5,1.3,0.5
			s0.9-0.2,1.3-0.5c0.3-0.4,0.5-0.8,0.5-1.3C29.6,41.6,29.5,41.1,29.1,40.8z"/>
		<path id="XMLID_205_" class="st4" d="M33.3,40.4v4.2h-0.8v-4.2H31v-0.8h3.9v0.8H33.3z"/>
		<path id="XMLID_207_" class="st4" d="M39.2,39.6v0.8h-2.7v1.3H39v0.7h-2.4v1.3h2.7v0.8h-3.6v-5H39.2z"/>
		<path id="XMLID_209_" class="st4" d="M40.4,44.6v-5h0.8v4.2h2.3v0.8H40.4z"/>
	</g>
	<path id="XMLID_198_" class="st11" d="M24.9,37.8L24,37.3c0,0,0,0-0.1,0l-0.9,0.5c-0.1,0-0.1,0-0.1-0.1l0.2-1c0,0,0,0,0-0.1
		L22.4,36c0,0,0-0.1,0-0.1l1-0.1c0,0,0,0,0.1,0l0.4-0.9c0-0.1,0.1-0.1,0.1,0l0.4,0.9c0,0,0,0,0.1,0l1,0.1c0.1,0,0.1,0.1,0,0.1
		l-0.7,0.7c0,0,0,0,0,0.1l0.2,1C25.1,37.8,25,37.8,24.9,37.8z"/>
	<path id="XMLID_211_" class="st11" d="M28.8,37.8l-0.9-0.5c0,0,0,0-0.1,0L27,37.8c-0.1,0-0.1,0-0.1-0.1l0.2-1c0,0,0,0,0-0.1
		L26.3,36c0,0,0-0.1,0-0.1l1-0.1c0,0,0,0,0.1,0l0.4-0.9c0-0.1,0.1-0.1,0.1,0l0.4,0.9c0,0,0,0,0.1,0l1,0.1c0.1,0,0.1,0.1,0,0.1
		l-0.7,0.7c0,0,0,0,0,0.1l0.2,1C28.9,37.8,28.9,37.8,28.8,37.8z"/>
	<path id="XMLID_212_" class="st11" d="M32.7,37.8l-0.9-0.5c0,0,0,0-0.1,0l-0.9,0.5c-0.1,0-0.1,0-0.1-0.1l0.2-1c0,0,0,0,0-0.1
		L30.2,36c0,0,0-0.1,0-0.1l1-0.1c0,0,0,0,0.1,0l0.4-0.9c0-0.1,0.1-0.1,0.1,0l0.4,0.9c0,0,0,0,0.1,0l1,0.1c0.1,0,0.1,0.1,0,0.1
		l-0.7,0.7c0,0,0,0,0,0.1l0.2,1C32.8,37.8,32.8,37.8,32.7,37.8z"/>
	<path id="XMLID_213_" class="st11" d="M36.6,37.8l-0.9-0.5c0,0,0,0-0.1,0l-0.9,0.5c-0.1,0-0.1,0-0.1-0.1l0.2-1c0,0,0,0,0-0.1
		L34.1,36c0,0,0-0.1,0-0.1l1-0.1c0,0,0,0,0.1,0l0.4-0.9c0-0.1,0.1-0.1,0.1,0l0.4,0.9c0,0,0,0,0.1,0l1,0.1c0.1,0,0.1,0.1,0,0.1
		l-0.7,0.7c0,0,0,0,0,0.1l0.2,1C36.7,37.8,36.6,37.8,36.6,37.8z"/>
	<path id="XMLID_214_" class="st11" d="M40.5,37.8l-0.9-0.5c0,0,0,0-0.1,0l-0.9,0.5c-0.1,0-0.1,0-0.1-0.1l0.2-1c0,0,0,0,0-0.1
		L37.9,36c0,0,0-0.1,0-0.1l1-0.1c0,0,0,0,0.1,0l0.4-0.9c0-0.1,0.1-0.1,0.1,0l0.4,0.9c0,0,0,0,0.1,0l1,0.1c0.1,0,0.1,0.1,0,0.1
		l-0.7,0.7c0,0,0,0,0,0.1l0.2,1C40.6,37.8,40.5,37.8,40.5,37.8z"/>
	<line id="XMLID_216_" class="st8" x1="15.7" y1="47.1" x2="47.8" y2="47.1"/>
	<circle id="XMLID_215_" class="st8" cx="31.8" cy="20.2" r="1.1"/>
	<g id="XMLID_613_" class="st21">
		<line id="XMLID_615_" class="st0" x1="44.4" y1="28.4" x2="47" y2="28.4"/>
		<line id="XMLID_614_" class="st0" x1="45.7" y1="29.7" x2="45.7" y2="27"/>
	</g>
	<g id="XMLID_223_" class="st21">
		<line id="XMLID_225_" class="st0" x1="20.8" y1="24.9" x2="23.4" y2="24.9"/>
		<line id="XMLID_224_" class="st0" x1="22.1" y1="26.2" x2="22.1" y2="23.6"/>
	</g>
	<g id="XMLID_226_" class="st21">
		<line id="XMLID_228_" class="st0" x1="21.5" y1="17.7" x2="24.2" y2="17.7"/>
		<line id="XMLID_227_" class="st0" x1="22.9" y1="19.1" x2="22.9" y2="16.4"/>
	</g>
	<g id="XMLID_229_" class="st21">
		<line id="XMLID_231_" class="st0" x1="15.7" y1="21.3" x2="20" y2="21.3"/>
		<line id="XMLID_230_" class="st0" x1="17.9" y1="23.5" x2="17.9" y2="19.1"/>
	</g>
	<g id="XMLID_217_" class="st21">
		<line id="XMLID_219_" class="st0" x1="38.8" y1="23.3" x2="42" y2="23.3"/>
		<line id="XMLID_218_" class="st0" x1="40.4" y1="24.9" x2="40.4" y2="21.7"/>
	</g>
	<g id="XMLID_220_" class="st21">
		<line id="XMLID_222_" class="st0" x1="44" y1="20.6" x2="48.3" y2="20.6"/>
		<line id="XMLID_221_" class="st0" x1="46.1" y1="22.7" x2="46.1" y2="18.4"/>
	</g>
</g>
<g id="XMLID_302_" class="st7">
	<line id="XMLID_294_" class="st8" x1="34.4" y1="31" x2="34.4" y2="24.4"/>
	<line id="XMLID_292_" class="st8" x1="36.7" y1="31" x2="36.7" y2="26.4"/>
	<rect id="XMLID_291_" x="25.5" y="30.6" class="st14" width="16" height="1.9"/>
	<path id="XMLID_239_" class="st9" d="M40.2,42.1H22.9c-2.8,0-5-2.3-5-5v-0.6c0-2.8,2.3-5,5-5h17.4c2.8,0,5,2.3,5,5v0.6
		C45.2,39.8,43,42.1,40.2,42.1z"/>
	<rect id="XMLID_236_" x="16.4" y="36.3" class="st14" width="32.2" height="1.4"/>
	<polygon id="XMLID_235_" class="st16" points="48.9,37.3 12.9,37.3 14.2,44.3 47.2,44.3 	"/>
	<g id="XMLID_299_" class="st21">
		<circle id="XMLID_298_" class="st2" cx="24.1" cy="19.8" r="4.7"/>
		<circle id="XMLID_297_" class="st25" cx="24.1" cy="19.9" r="3"/>
	</g>
	<path id="XMLID_234_" class="st12" d="M45.8,47H16.4c-1.9,0-3.5-1.4-3.7-3.3l-0.6-4.4h4.5l1.3-2.1h33.9l-3.7,8.2
		C47.7,46.4,46.8,47,45.8,47z"/>
	<rect id="XMLID_240_" x="21" y="33.8" class="st23" width="1.1" height="1.1"/>
	<rect id="XMLID_256_" x="18.1" y="40.5" class="st23" width="1.1" height="1.1"/>
	<rect id="XMLID_257_" x="19.9" y="40.5" class="st23" width="1.1" height="1.1"/>
	<rect id="XMLID_258_" x="21.8" y="40.5" class="st23" width="1.1" height="1.1"/>
	<rect id="XMLID_264_" x="23.7" y="40.5" class="st23" width="1.1" height="1.1"/>
	<rect id="XMLID_270_" x="25.5" y="40.5" class="st23" width="1.1" height="1.1"/>
	<rect id="XMLID_271_" x="27.4" y="40.5" class="st23" width="1.1" height="1.1"/>
	<rect id="XMLID_281_" x="29.3" y="40.5" class="st23" width="1.1" height="1.1"/>
	<rect id="XMLID_282_" x="31.1" y="40.5" class="st23" width="1.1" height="1.1"/>
	<rect id="XMLID_283_" x="33" y="40.5" class="st23" width="1.1" height="1.1"/>
	<rect id="XMLID_284_" x="34.8" y="40.5" class="st23" width="1.1" height="1.1"/>
	<rect id="XMLID_285_" x="36.7" y="40.5" class="st23" width="1.1" height="1.1"/>
	<rect id="XMLID_286_" x="38.6" y="40.5" class="st23" width="1.1" height="1.1"/>
	<rect id="XMLID_287_" x="40.4" y="40.5" class="st23" width="1.1" height="1.1"/>
	<rect id="XMLID_288_" x="42.3" y="40.5" class="st23" width="1.1" height="1.1"/>
	<rect id="XMLID_289_" x="44.2" y="40.5" class="st23" width="1.1" height="1.1"/>
	<rect id="XMLID_290_" x="46" y="40.5" class="st23" width="1.1" height="1.1"/>
	<rect id="XMLID_241_" x="22.8" y="33.8" class="st23" width="1.1" height="1.1"/>
	<rect id="XMLID_242_" x="24.5" y="33.8" class="st23" width="1.1" height="1.1"/>
	<rect id="XMLID_243_" x="26.3" y="33.8" class="st23" width="1.1" height="1.1"/>
	<rect id="XMLID_245_" x="28" y="33.8" class="st23" width="1.1" height="1.1"/>
	<rect id="XMLID_246_" x="29.8" y="33.8" class="st23" width="1.1" height="1.1"/>
	<rect id="XMLID_247_" x="31.6" y="33.8" class="st23" width="1.1" height="1.1"/>
	<rect id="XMLID_248_" x="33.3" y="33.8" class="st23" width="1.1" height="1.1"/>
	<rect id="XMLID_249_" x="35.1" y="33.8" class="st23" width="1.1" height="1.1"/>
	<rect id="XMLID_250_" x="36.8" y="33.8" class="st23" width="1.1" height="1.1"/>
	<rect id="XMLID_255_" x="38.6" y="33.8" class="st23" width="5.8" height="1.1"/>
	<line id="XMLID_293_" class="st8" x1="12.5" y1="47" x2="51.5" y2="47"/>
	<line id="XMLID_295_" class="st8" x1="11.3" y1="48.9" x2="27.8" y2="48.9"/>
	<line id="XMLID_296_" class="st8" x1="52.7" y1="48.9" x2="28.9" y2="48.9"/>
	<path id="XMLID_300_" class="st8" d="M39.2,21.1c-1.5,0-1.5-1.8-2.9-1.8c-1.5,0-1.5,1.8-2.9,1.8c-1.5,0-1.5-1.8-2.9-1.8
		c-1.5,0-1.5,1.8-2.9,1.8c-1.5,0-1.5-1.8-2.9-1.8"/>
	<path id="XMLID_301_" class="st8" d="M31.8,25c-1.5,0-1.5-1.8-2.9-1.8c-1.5,0-1.5,1.8-2.9,1.8c-1.5,0-1.5-1.8-2.9-1.8
		c-1.5,0-1.5,1.8-2.9,1.8c-1.5,0-1.5-1.8-2.9-1.8"/>
</g>
<g id="XMLID_432_" class="st7">
	<g id="XMLID_433_" class="st21">
		<path id="XMLID_436_" class="st5" d="M33.8,32.6c0-0.8-0.7-1.5-1.5-1.5c-0.2,0-0.4,0.1-0.6,0.2c-0.3-0.6-0.8-1-1.5-1.1
			c0-0.2,0.1-0.3,0.1-0.4c0-1.4-1.1-2.5-2.5-2.5c-0.7,0-1.2,0.3-1.7,0.7c-0.2-2.4-2.1-4.3-4.6-4.3c-2.1,0-3.9,1.4-4.4,3.4
			c-0.2,0-0.4-0.1-0.6-0.1c-1.5,0-2.7,1-3,2.4c-0.3-0.1-0.7-0.2-1.1-0.2c-1.6,0-2.9,1.3-2.9,2.9c0,0.5,0.2,1,0.4,1.4h23.7
			C33.7,33.1,33.8,32.9,33.8,32.6z"/>
		<path id="XMLID_435_" class="st26" d="M16,27.5c1.5,0,2.7,1.2,2.7,2.7c0,0.3-0.1,0.6-0.2,0.9c0.3-0.4,0.5-1,0.5-1.5
			c0-1.5-1.2-2.7-2.7-2.7h0c-1.2,0-2.2,0.8-2.6,1.9C14.2,28,15,27.5,16,27.5z"/>
		<path id="XMLID_434_" class="st26" d="M29.5,30.5c-0.7,0.5-1.6,0.3-2.1-0.4c-0.1-0.1-0.2-0.3-0.2-0.4c0,0.3,0.1,0.6,0.3,0.8
			c0.5,0.7,1.4,0.8,2.1,0.4l0,0c0.5-0.4,0.7-1,0.6-1.6C30.2,29.7,30,30.2,29.5,30.5z"/>
	</g>
	<path id="XMLID_425_" class="st11" d="M31.8,23.5c-8.4,0-15.2,6.8-15.2,15.2c0,0.2,0,0.4,0,0.6c0.6-0.6,1-1.4,2-1.4
		c1.7,0,1.7,2.1,3.5,2.1c1.7,0,1.7-2.1,3.5-2.1c1.7,0,1.7,2.1,3.5,2.1c1.7,0,1.7-2,3.3-2.1c0,0,0,0-0.1,0h0.2c-0.1,0-0.1,0-0.2,0
		c1.5,0.1,1.6,2,3.2,2c1.6,0,1.6-2,3.2-2c1.6,0,1.6,2,3.2,2c1.6,0,1.6-2,3.2-2c0.8,0,1.3,0.5,1.7,1.1c0-0.1,0-0.1,0-0.2
		C47,30.3,40.2,23.5,31.8,23.5z"/>
	<line id="XMLID_431_" class="st8" x1="32" y1="18.4" x2="32" y2="22.5"/>
	<line id="XMLID_430_" class="st8" x1="39.3" y1="21.1" x2="38.4" y2="23.7"/>
	<line id="XMLID_429_" class="st8" x1="46.7" y1="23.7" x2="44" y2="26.9"/>
	<line id="XMLID_428_" class="st8" x1="50.5" y1="30.6" x2="48.2" y2="31.9"/>
	<line id="XMLID_427_" class="st8" x1="54.6" y1="37.3" x2="50.5" y2="38"/>
	<line id="XMLID_426_" class="st8" x1="9.4" y1="37.2" x2="13.5" y2="37.9"/>
	<line id="XMLID_423_" class="st8" x1="13.5" y1="30.4" x2="15.8" y2="31.8"/>
	<line id="XMLID_422_" class="st8" x1="17.4" y1="23.6" x2="20" y2="26.8"/>
	<line id="XMLID_420_" class="st8" x1="25" y1="21.1" x2="25.7" y2="23.6"/>
	<path id="XMLID_303_" class="st8" d="M47.6,43.6c-1.6,0-1.6-2-3.3-2c-1.6,0-1.6,2-3.3,2c-1.6,0-1.6-2-3.3-2c-1.6,0-1.6,2-3.3,2
		s-1.6-2-3.3-2"/>
	<path id="XMLID_419_" class="st8" d="M32,45.6c-1.6,0-1.6-2-3.3-2c-1.6,0-1.6,2-3.3,2c-1.6,0-1.6-2-3.3-2c-1.6,0-1.6,2-3.3,2
		c-1.6,0-1.6-2-3.3-2"/>
	<path id="XMLID_418_" class="st8" d="M48.3,39.8c-1.6,0-1.6-2-3.2-2c-1.6,0-1.6,2-3.2,2c-1.6,0-1.6-2-3.2-2c-1.6,0-1.6,2-3.2,2
		c-1.6,0-1.6-2-3.2-2"/>
	<path id="XMLID_421_" class="st8" d="M15.2,40c1.7,0,1.7-2.1,3.5-2.1c1.7,0,1.7,2.1,3.5,2.1c1.7,0,1.7-2.1,3.5-2.1
		c1.7,0,1.7,2.1,3.5,2.1c1.7,0,1.7-2.1,3.5-2.1"/>
	<path id="XMLID_424_" class="st11" d="M32.3,37.8C32.4,37.8,32.4,37.8,32.3,37.8c0.1,0,0.2,0,0.2,0H32.3z"/>
</g>
<g id="XMLID_312_" class="st7">
	<circle id="XMLID_311_" class="st27" cx="33.3" cy="26.1" r="11.6"/>
	<polygon id="XMLID_304_" class="st12" points="47.2,29.2 33.2,29.2 33.2,20.8 47.2,20.8 50.1,25 	"/>
	<polygon id="XMLID_306_" class="st11" points="19.4,32.6 33.3,32.6 33.3,24.2 19.4,24.2 16.5,28.4 	"/>
	<line id="XMLID_307_" class="st8" x1="33.2" y1="19.7" x2="33.2" y2="46.3"/>
	<line id="XMLID_308_" class="st8" x1="29" y1="46.3" x2="44.6" y2="46.3"/>
	<line id="XMLID_309_" class="st8" x1="13.9" y1="49.5" x2="39.6" y2="49.5"/>
	<line id="XMLID_310_" class="st8" x1="50.1" y1="49.5" x2="41.7" y2="49.5"/>
	<line id="XMLID_305_" class="st8" x1="27.2" y1="46.3" x2="19.2" y2="46.3"/>
</g>
<g id="XMLID_915_" class="st7">
	<polygon id="XMLID_944_" class="st16" points="49.6,28.9 46.2,31.7 44.9,30.4 47.8,27 	"/>
	<polygon id="XMLID_943_" class="st8" points="49.6,28.9 46.2,31.7 44.9,30.4 47.8,27 	"/>
	<polygon id="XMLID_942_" class="st16" points="37,16.3 33.7,19.1 32.4,17.8 35.2,14.5 	"/>
	<polygon id="XMLID_941_" class="st8" points="37,16.3 33.7,19.1 32.4,17.8 35.2,14.5 	"/>
	<path id="XMLID_940_" class="st12" d="M37.3,24.9l-12-6.6c0,0,0.9-0.9,2-2c1.1-1.1,2.3-0.4,4.3,0.3l9.7,4.2L37.3,24.9z"/>
	<path id="XMLID_948_" class="st28" d="M26.6,17.1c-0.7,0.7-1.2,1.2-1.2,1.2l12,6.6l1.2-1.2L26.6,17.1z"/>
	<path id="XMLID_939_" class="st8" d="M37.3,24.9l-12-6.6c0,0,0.9-0.9,2-2c1.1-1.1,2.3-0.4,4.3,0.3l9.7,4.2L37.3,24.9z"/>
	<path id="XMLID_938_" class="st12" d="M39.6,27.1l6.6,12c0,0,0.9-0.9,2-2c1.1-1.1,0.4-2.3-0.3-4.3l-4.2-9.7L39.6,27.1z"/>
	<path id="XMLID_949_" class="st28" d="M40.8,25.8l-1.3,1.3l6.6,12c0,0,0.5-0.5,1.3-1.3L40.8,25.8z"/>
	<path id="XMLID_937_" class="st8" d="M39.6,27.1l6.6,12c0,0,0.9-0.9,2-2c1.1-1.1,0.4-2.3-0.3-4.3l-4.2-9.7L39.6,27.1z"/>
	<path id="XMLID_936_" class="st11" d="M50.8,12.5L45.1,14L31.2,28L26,35.8l-2.4-1.1c-0.8-0.3-1.3-0.6-1.8-0.1
		c-0.5,0.5-0.8,0.8-0.8,0.8l4.8,2.6l0.1,0.1l2.6,4.8c0,0,0.4-0.4,0.8-0.8c0.5-0.5,0.2-1-0.1-1.8L28,37.7l7.4-5.6l13.7-13l2.1-6.2
		C51.2,12.7,51.1,12.5,50.8,12.5z"/>
	<path id="XMLID_945_" class="st8" d="M44.8,24c2-2,3.7-4,4.6-5.8c0.6-1.1,1.8-5.3,1.8-5.3c0-0.3-0.1-0.5-0.4-0.4c0,0-4.2,1-5.4,1.6
		c-1.8,0.9-3.9,2.7-6,4.9"/>
	<path id="XMLID_935_" class="st8" d="M34.4,24.5c-1.1,1.3-2.1,2.6-2.9,3.5c-1.5,1.8-5.9,7.6-5.9,7.6l-2.1-0.9
		c-0.8-0.3-1.3-0.6-1.8-0.1c-0.5,0.5-0.8,0.8-0.8,0.8l4.8,2.6l0.1,0.1l2.6,4.8c0,0,0.4-0.4,0.8-0.8c0.5-0.5,0.2-1-0.1-1.8l-1-2.3
		c0,0,5.5-4.4,7.3-5.9c1-0.8,2.3-1.9,3.7-3"/>
	<line id="XMLID_934_" class="st8" x1="23.5" y1="40.3" x2="27.4" y2="36.5"/>
	<path id="XMLID_933_" class="st23" d="M47.6,18.4c-0.6,0.6-1.1,1.1-1.7,1.7c-0.7-1.1-1.6-2-2.7-2.7c0.6-0.6,1.1-1.1,1.7-1.7
		C46,16.4,47,17.4,47.6,18.4z"/>
	<circle id="XMLID_931_" class="st23" cx="43.9" cy="23.1" r="0.5"/>
	<circle id="XMLID_930_" class="st23" cx="42.3" cy="24.7" r="0.5"/>
	<circle id="XMLID_929_" class="st23" cx="40.6" cy="26.1" r="0.5"/>
	<circle id="XMLID_928_" class="st23" cx="39" cy="27.6" r="0.5"/>
	<circle id="XMLID_927_" class="st23" cx="37.3" cy="29" r="0.5"/>
	<circle id="XMLID_926_" class="st23" cx="35.6" cy="30.4" r="0.5"/>
	<circle id="XMLID_925_" class="st23" cx="33.9" cy="31.7" r="0.5"/>
	<circle id="XMLID_924_" class="st23" cx="32.2" cy="33.1" r="0.5"/>
	<circle id="XMLID_923_" class="st23" cx="40.6" cy="19.8" r="0.5"/>
	<circle id="XMLID_922_" class="st23" cx="39" cy="21.4" r="0.5"/>
	<circle id="XMLID_921_" class="st23" cx="37.6" cy="23.1" r="0.5"/>
	<circle id="XMLID_920_" class="st23" cx="36.1" cy="24.7" r="0.5"/>
	<circle id="XMLID_919_" class="st23" cx="34.7" cy="26.4" r="0.5"/>
	<circle id="XMLID_918_" class="st23" cx="33.3" cy="28" r="0.5"/>
	<circle id="XMLID_917_" class="st23" cx="31.9" cy="29.8" r="0.5"/>
	<circle id="XMLID_916_" class="st23" cx="30.6" cy="31.5" r="0.5"/>
	<line id="XMLID_946_" class="st8" x1="12.8" y1="30.9" x2="23.5" y2="20.2"/>
	<line id="XMLID_896_" class="st8" x1="17.6" y1="30" x2="26.2" y2="21.4"/>
	<line id="XMLID_947_" class="st8" x1="22.7" y1="28.8" x2="28.7" y2="22.7"/>
	<line id="XMLID_313_" class="st8" x1="33.4" y1="51.5" x2="44" y2="40.8"/>
	<line id="XMLID_952_" class="st8" x1="34.3" y1="46.7" x2="42.9" y2="38.1"/>
	<line id="XMLID_951_" class="st8" x1="35.5" y1="41.6" x2="41.5" y2="35.6"/>
</g>
<g id="XMLID_328_" class="st7">
	<line id="XMLID_319_" class="st8" x1="26.7" y1="42.9" x2="20.1" y2="51.2"/>
	<line id="XMLID_321_" class="st8" x1="29.2" y1="42.9" x2="25.6" y2="47.4"/>
	<line id="XMLID_327_" class="st8" x1="37.6" y1="42.9" x2="44.2" y2="51.2"/>
	<line id="XMLID_326_" class="st8" x1="35" y1="42.9" x2="38.6" y2="47.4"/>
	<path id="XMLID_314_" class="st14" d="M44.7,42H19.6V18.9c0-1.4,1.2-2.6,2.6-2.6h19.9c1.4,0,2.6,1.2,2.6,2.6V42z"/>
	<path id="XMLID_320_" class="st8" d="M20.1,37.4V18.9c0-1.3,1-2.3,2.3-2.3h19.5c1.3,0,2.3,1,2.3,2.3v18.4"/>
	<path id="XMLID_315_" class="st12" d="M44.9,43.3H19.1c-0.7,0-1.2-0.5-1.2-1.2v-3.6l0.1,0.1c0.6,0.5,1.3,0.8,2.1,0.8h23.7
		c0.8,0,1.5-0.3,2.1-0.8l0.1-0.1v3.6C46.1,42.8,45.5,43.3,44.9,43.3z"/>
	<circle id="XMLID_316_" class="st11" cx="24.9" cy="35.2" r="1.5"/>
	<circle id="XMLID_317_" class="st11" cx="39.8" cy="35.2" r="1.5"/>
	<rect id="XMLID_318_" x="23" y="20.9" class="st12" width="18.5" height="11.6"/>
	<line id="XMLID_322_" class="st8" x1="26" y1="12.8" x2="29.7" y2="16.6"/>
	<line id="XMLID_324_" class="st8" x1="38.3" y1="12.8" x2="34.5" y2="16.6"/>
	<line id="XMLID_323_" class="st8" x1="23.4" y1="13" x2="41.4" y2="13"/>
	<line id="XMLID_325_" class="st8" x1="27.1" y1="19.2" x2="36.8" y2="19.2"/>
</g>
<g id="XMLID_417_" class="st7">
	<path id="XMLID_341_" class="st8" d="M18.7,28.5C19,43.3,31.9,48,31.9,48s13.2-5.2,13.2-19.5"/>
	<line id="XMLID_343_" class="st8" x1="28.9" y1="46.4" x2="28.9" y2="49.7"/>
	<line id="XMLID_342_" class="st8" x1="35" y1="46.4" x2="35" y2="49.7"/>
	<rect id="XMLID_335_" x="16.7" y="24.7" class="st29" width="30.8" height="3.9"/>
	<circle id="XMLID_329_" class="st29" cx="32.1" cy="26.6" r="12.3"/>
	<circle id="XMLID_334_" class="st14" cx="32.1" cy="26.6" r="9.9"/>
	<circle id="XMLID_330_" class="st12" cx="27.4" cy="24" r="2.7"/>
	<circle id="XMLID_331_" class="st12" cx="36.6" cy="24" r="2.7"/>
	<circle id="XMLID_332_" class="st29" cx="31.9" cy="31.3" r="2.5"/>
	<rect id="XMLID_338_" x="15.5" y="23.5" class="st14" width="2.3" height="6.3"/>
	<path id="XMLID_337_" class="st8" d="M17.8,29.8h-0.9c-0.8,0-1.4-0.6-1.4-1.4v-3.5c0-0.8,0.6-1.4,1.4-1.4h0.9V29.8z"/>
	<rect id="XMLID_340_" x="46.2" y="23.5" class="st14" width="2.3" height="6.3"/>
	<path id="XMLID_339_" class="st8" d="M47.2,29.8h-1v-6.3h1c0.7,0,1.3,0.6,1.3,1.3v3.7C48.5,29.2,47.9,29.8,47.2,29.8z"/>
	<path id="XMLID_333_" class="st23" d="M34.1,33.5L34.1,33.5c-0.5,0.5-1.4,0.5-1.9,0l-2.4-2.4c-0.5-0.5-0.5-1.4,0-1.9l0,0
		c0.5-0.5,1.4-0.5,1.9,0l2.4,2.4C34.6,32.1,34.6,33,34.1,33.5z"/>
	<g id="XMLID_379_" class="st21">
		<line id="XMLID_344_" class="st0" x1="31.9" y1="14.3" x2="31.9" y2="15.7"/>
		<line id="XMLID_336_" class="st0" x1="34.1" y1="14.5" x2="33.8" y2="15.8"/>
		<line id="XMLID_345_" class="st0" x1="36.2" y1="15" x2="35.7" y2="16.3"/>
		<line id="XMLID_346_" class="st0" x1="38.1" y1="15.9" x2="37.4" y2="17.1"/>
		<line id="XMLID_347_" class="st0" x1="39.9" y1="17.1" x2="39" y2="18.2"/>
		<line id="XMLID_348_" class="st0" x1="41.5" y1="18.6" x2="40.4" y2="19.5"/>
		<line id="XMLID_349_" class="st0" x1="42.7" y1="20.4" x2="41.5" y2="21.1"/>
		<line id="XMLID_350_" class="st0" x1="43.6" y1="22.3" x2="42.3" y2="22.8"/>
		<line id="XMLID_351_" class="st0" x1="44.2" y1="24.4" x2="42.9" y2="24.7"/>
		<line id="XMLID_352_" class="st0" x1="44.4" y1="26.6" x2="43" y2="26.6"/>
		<line id="XMLID_353_" class="st0" x1="44.2" y1="28.7" x2="42.9" y2="28.5"/>
		<line id="XMLID_354_" class="st0" x1="43.7" y1="30.8" x2="42.4" y2="30.3"/>
		<line id="XMLID_355_" class="st0" x1="42.8" y1="32.8" x2="41.6" y2="32.1"/>
		<line id="XMLID_356_" class="st0" x1="41.5" y1="34.6" x2="40.5" y2="33.6"/>
		<line id="XMLID_357_" class="st0" x1="40" y1="36.1" x2="39.1" y2="35"/>
		<line id="XMLID_358_" class="st0" x1="38.2" y1="37.3" x2="37.5" y2="36.1"/>
		<line id="XMLID_359_" class="st0" x1="36.2" y1="38.2" x2="35.8" y2="36.9"/>
		<line id="XMLID_360_" class="st0" x1="34.1" y1="38.7" x2="33.9" y2="37.4"/>
		<line id="XMLID_361_" class="st0" x1="32" y1="38.9" x2="32" y2="37.5"/>
		<line id="XMLID_362_" class="st0" x1="29.8" y1="38.7" x2="30.1" y2="37.3"/>
		<line id="XMLID_363_" class="st0" x1="27.7" y1="38.1" x2="28.3" y2="36.8"/>
		<line id="XMLID_364_" class="st0" x1="25.8" y1="37.2" x2="26.5" y2="36"/>
		<line id="XMLID_365_" class="st0" x1="24.1" y1="35.9" x2="25" y2="34.9"/>
		<line id="XMLID_366_" class="st0" x1="22.6" y1="34.3" x2="23.6" y2="33.5"/>
		<line id="XMLID_367_" class="st0" x1="21.4" y1="32.5" x2="22.6" y2="31.9"/>
		<line id="XMLID_368_" class="st0" x1="20.5" y1="30.5" x2="21.8" y2="30.1"/>
		<line id="XMLID_369_" class="st0" x1="20" y1="28.4" x2="21.3" y2="28.3"/>
		<line id="XMLID_370_" class="st0" x1="19.8" y1="26.3" x2="21.2" y2="26.3"/>
		<line id="XMLID_371_" class="st0" x1="20.1" y1="24.1" x2="21.4" y2="24.4"/>
		<line id="XMLID_372_" class="st0" x1="20.7" y1="22.1" x2="22" y2="22.6"/>
		<line id="XMLID_373_" class="st0" x1="21.7" y1="20.1" x2="22.8" y2="20.9"/>
		<line id="XMLID_374_" class="st0" x1="23" y1="18.4" x2="24" y2="19.3"/>
		<line id="XMLID_375_" class="st0" x1="24.6" y1="16.9" x2="25.4" y2="18"/>
		<line id="XMLID_376_" class="st0" x1="26.4" y1="15.8" x2="27" y2="17"/>
		<line id="XMLID_377_" class="st0" x1="28.4" y1="14.9" x2="28.8" y2="16.2"/>
		<line id="XMLID_378_" class="st0" x1="30.2" y1="14.5" x2="30.4" y2="15.9"/>
	</g>
</g>
<g id="XMLID_457_" class="st7">
	<line id="XMLID_445_" class="st8" x1="14.9" y1="49.5" x2="14.9" y2="51.4"/>
	<line id="XMLID_444_" class="st8" x1="16.6" y1="49.5" x2="16.6" y2="51.4"/>
	<line id="XMLID_446_" class="st8" x1="18.4" y1="49.5" x2="18.4" y2="51.4"/>
	<line id="XMLID_447_" class="st8" x1="20.1" y1="49.5" x2="20.1" y2="51.4"/>
	<line id="XMLID_448_" class="st8" x1="21.9" y1="49.5" x2="21.9" y2="51.4"/>
	<line id="XMLID_449_" class="st8" x1="23.6" y1="49.5" x2="23.6" y2="51.4"/>
	<line id="XMLID_450_" class="st8" x1="25.3" y1="49.5" x2="25.3" y2="51.4"/>
	<line id="XMLID_451_" class="st8" x1="27.1" y1="49.5" x2="27.1" y2="51.4"/>
	<line id="XMLID_452_" class="st8" x1="28.8" y1="49.5" x2="28.8" y2="51.4"/>
	<line id="XMLID_453_" class="st8" x1="30.6" y1="49.5" x2="30.6" y2="51.4"/>
	<line id="XMLID_454_" class="st8" x1="32.3" y1="49.5" x2="32.3" y2="51.4"/>
	<line id="XMLID_455_" class="st8" x1="34" y1="49.5" x2="34" y2="51.4"/>
	<line id="XMLID_467_" class="st8" x1="14.9" y1="17.7" x2="14.9" y2="19.6"/>
	<line id="XMLID_466_" class="st8" x1="16.6" y1="17.7" x2="16.6" y2="19.6"/>
	<line id="XMLID_465_" class="st8" x1="18.4" y1="17.7" x2="18.4" y2="19.6"/>
	<line id="XMLID_464_" class="st8" x1="20.1" y1="17.7" x2="20.1" y2="19.6"/>
	<line id="XMLID_463_" class="st8" x1="21.9" y1="17.7" x2="21.9" y2="19.6"/>
	<line id="XMLID_462_" class="st8" x1="23.6" y1="17.7" x2="23.6" y2="19.6"/>
	<rect id="XMLID_443_" x="14.4" y="19.2" class="st11" width="20.2" height="30.4"/>
	<polyline id="XMLID_469_" class="st8" points="14.4,22.8 14.8,22.8 16.2,24.9 17.6,22.8 19,24.9 20.4,22.8 21.8,24.9 23.2,22.8 
		24.6,24.9 26,22.8 27.4,24.9 28.8,22.8 30.2,24.9 31.6,22.8 33,24.9 34.2,22.8 34.7,22.8 	"/>
	<polyline id="XMLID_468_" class="st8" points="14.4,44.1 14.8,44.1 16.2,46.2 17.6,44.1 19,46.2 20.4,44.1 21.8,46.2 23.2,44.1 
		24.6,46.2 26,44.1 27.4,46.2 28.8,44.1 30.2,46.2 31.6,44.1 33,46.2 34.2,44.1 34.7,44.1 	"/>
	<path id="XMLID_471_" class="st12" d="M39.7,13.1c-3.3-0.9-6.9-0.5-10.1,1.3l6.6,11.5L39.7,13.1z"/>
	<path id="XMLID_472_" class="st9" d="M36.3,25.9l-6.6-11.5c-3.2,1.8-5.3,4.8-6.2,8.1L36.3,25.9L36.3,25.9z"/>
	<path id="XMLID_473_" class="st9" d="M36.3,25.9l11.5-6.7c-1.8-3.2-4.8-5.3-8.1-6.2L36.3,25.9L36.3,25.9z"/>
	<polygon id="XMLID_474_" class="st9" points="36.3,25.9 36.3,25.9 36.3,25.9 	"/>
	<polygon id="XMLID_475_" class="st9" points="36.3,25.9 36.3,25.9 36.3,25.9 	"/>
	<rect id="XMLID_476_" x="36.3" y="25.9" class="st9" width="0" height="0"/>
	<path id="XMLID_477_" class="st9" d="M42.9,37.4c3.2-1.8,5.3-4.8,6.2-8.1l-12.8-3.4L42.9,37.4z"/>
	<path id="XMLID_478_" class="st12" d="M47.8,19.2l-11.5,6.7l0,0l12.8,3.4C50,26,49.6,22.4,47.8,19.2C47.8,19.3,47.8,19.2,47.8,19.2
		z"/>
	<path id="XMLID_479_" class="st12" d="M36.3,25.9l-12.8-3.4c-0.9,3.3-0.5,6.9,1.3,10c0,0,0,0,0,0L36.3,25.9L36.3,25.9z"/>
	<path id="XMLID_480_" class="st9" d="M24.8,32.6c1.8,3.2,4.8,5.3,8.1,6.2l3.4-12.8L24.8,32.6z"/>
	<path id="XMLID_481_" class="st12" d="M36.3,25.9L36.3,25.9l-3.4,12.8c3.3,0.9,6.9,0.5,10.1-1.3L36.3,25.9L36.3,25.9z"/>
	<circle id="XMLID_470_" class="st8" cx="36.3" cy="25.9" r="13.3"/>
	<circle id="XMLID_456_" class="st12" cx="36.3" cy="25.9" r="1"/>
</g>
<g id="XMLID_460_" class="st7">
	<path id="XMLID_459_" class="st11" d="M45.7,14.4H18.2c-1.5,0-2.7,1.1-2.8,2.6l-0.8,10.9h34.8L48.6,17
		C48.5,15.5,47.2,14.4,45.7,14.4z"/>
	<line id="XMLID_441_" class="st8" x1="15.6" y1="38.9" x2="21.2" y2="38.9"/>
	<line id="XMLID_442_" class="st8" x1="42.8" y1="38.9" x2="48.4" y2="38.9"/>
	<line id="XMLID_440_" class="st8" x1="29.7" y1="38.9" x2="35.2" y2="38.9"/>
	<path id="XMLID_438_" class="st8" d="M29.7,41.7l0.5-0.3c1.2-0.7,2.6-0.8,3.9-0.2l1.2,0.5"/>
	<path id="XMLID_437_" class="st12" d="M30.4,39.3c0,3.9-3.2,10.3-7.1,10.3s-7.1-3.2-7.1-7.1c0-3.9,3.2-7.1,7.1-7.1
		S30.4,35.4,30.4,39.3z"/>
	<path id="XMLID_439_" class="st12" d="M33.7,39.3c0,3.9,3.2,10.3,7.1,10.3c3.9,0,7.1-3.2,7.1-7.1c0-3.9-3.2-7.1-7.1-7.1
		C36.8,35.5,33.7,35.4,33.7,39.3z"/>
	<polygon id="XMLID_458_" class="st20" points="52.2,32.1 11.8,32.1 14.7,27.2 49.3,27.2 	"/>
	<polygon id="XMLID_483_" class="st23" points="14.8,24.8 49.1,24.8 48.8,20.5 15.1,20.5 	"/>
	<polygon id="XMLID_496_" class="st18" points="17.5,24.8 20.1,24.8 15.8,20.5 15.1,20.5 15,22.4 	"/>
	<polygon id="XMLID_494_" class="st18" points="22.8,24.8 25.4,24.8 21.1,20.5 18.5,20.5 	"/>
	<polygon id="XMLID_482_" class="st18" points="28.1,24.8 30.7,24.8 26.4,20.5 23.8,20.5 	"/>
	<polygon id="XMLID_484_" class="st18" points="33.4,24.8 36,24.8 31.7,20.5 29,20.5 	"/>
	<polygon id="XMLID_485_" class="st18" points="38.6,24.8 41.3,24.8 36.9,20.5 34.3,20.5 	"/>
	<polygon id="XMLID_486_" class="st18" points="43.9,24.8 46.5,24.8 42.2,20.5 39.6,20.5 	"/>
	<polygon id="XMLID_487_" class="st18" points="44.9,20.5 49.1,24.8 48.9,21.9 47.5,20.5 	"/>
	<path id="XMLID_461_" class="st8" d="M48.8,26.2l-0.7-9.3c-0.1-1.4-1.3-2.5-2.7-2.5H18.7c-1.4,0-2.6,1.1-2.7,2.5l-0.8,9.4"/>
	<line id="XMLID_488_" class="st8" x1="11.8" y1="32.1" x2="52.2" y2="32.1"/>
</g>
<g id="XMLID_498_" class="st7">
	<circle id="XMLID_491_" class="st14" cx="32" cy="32" r="14"/>
	<path id="XMLID_489_" class="st8" d="M41.6,41.7c-1.2,1.2-2.7,2.2-4.3,2.9c-1.6,0.7-3.4,1.1-5.3,1.1c-1.9,0-3.7-0.4-5.3-1.1
		c-1.6-0.7-3.1-1.7-4.3-2.9c-1.2-1.2-2.2-2.7-2.9-4.3c-0.7-1.6-1.1-3.4-1.1-5.3c0-1.9,0.4-3.7,1.1-5.3c0.7-1.6,1.7-3.1,2.9-4.3
		c1.2-1.2,2.7-2.2,4.3-2.9"/>
	<circle id="XMLID_490_" class="st27" cx="32" cy="32" r="18.2"/>
	<line id="XMLID_493_" class="st8" x1="32" y1="19.8" x2="32" y2="22.7"/>
	<line id="XMLID_492_" class="st8" x1="32" y1="41.4" x2="32" y2="44.3"/>
	<line id="XMLID_497_" class="st8" x1="19.8" y1="32" x2="22.7" y2="32"/>
	<line id="XMLID_495_" class="st8" x1="41.3" y1="32" x2="44.2" y2="32"/>
	<polygon id="XMLID_509_" class="st16" points="32.1,33.9 40.2,32 32.1,30.1 32.1,30.1 32,30.1 32,30.1 32,30.1 23.9,32 32,33.9 
		32,33.9 32,33.9 32.1,33.9 	"/>
	<polygon id="XMLID_502_" class="st16" points="33.9,31.9 32,23.8 30.1,31.9 30.1,31.9 30.1,32 30.1,32 30.1,32 32,40.1 33.9,32 
		33.9,32 33.9,32 33.9,31.9 	"/>
	<polygon id="XMLID_512_" class="st16" points="33,32.9 36.1,27.9 31.1,31 31.1,31 31,31 31,31.1 31,31.1 27.9,36.1 32.9,33 
		32.9,33 33,33 33,32.9 	"/>
	<polygon id="XMLID_508_" class="st16" points="32.9,31 27.9,27.9 31,32.9 31,32.9 31,33 31.1,33 31.1,33 36.1,36.1 33,31.1 
		33,31.1 33,31 32.9,31 	"/>
	<polygon id="XMLID_499_" class="st11" points="30.7,33.4 26.2,26.2 33.4,30.7 	"/>
	<polygon id="XMLID_500_" class="st12" points="30.6,33.3 37.8,37.8 33.3,30.6 	"/>
</g>
<g id="XMLID_761_" class="st7">
	<path id="XMLID_625_" class="st8" d="M27.1,21.7v-2.1c0-1.4,1.2-2.6,2.6-2.6h6.3c1.4,0,2.6,1.2,2.6,2.6v2.1"/>
	<rect id="XMLID_513_" x="14.3" y="21" class="st14" width="37.4" height="22.2"/>
	<path id="XMLID_537_" class="st29" d="M14.3,26.6c3.1,0,5.7-2.5,5.7-5.7h-5.7V26.6z"/>
	<path id="XMLID_517_" class="st29" d="M14.3,37.5v5.7h5.7C19.9,40,17.4,37.5,14.3,37.5z"/>
	<path id="XMLID_575_" class="st29" d="M46,21c0,0.1,0,0.2,0,0.2c0,3.1,2.5,5.7,5.7,5.7V21H46z"/>
	<path id="XMLID_611_" class="st29" d="M46,43.1h5.6v-5.4C48.6,37.7,46.2,40.1,46,43.1z"/>
	<rect id="XMLID_514_" x="24.5" y="29.1" class="st11" width="5.9" height="5.9"/>
	<g id="XMLID_539_" class="st21">
		
			<rect id="XMLID_538_" x="28.8" y="28.8" transform="matrix(0.8778 -0.479 0.479 0.8778 -10.9429 20.6144)" class="st30" width="12.4" height="5.9"/>
		
			<rect id="XMLID_540_" x="33" y="26.6" transform="matrix(0.479 0.8778 -0.8778 0.479 46.0747 -14.1215)" class="st2" width="3.9" height="10.4"/>
	</g>
	
		<rect id="XMLID_516_" x="28.7" y="32.7" transform="matrix(0.9703 0.2419 -0.2419 0.9703 9.6118 -6.9557)" class="st12" width="8.8" height="5.9"/>
	<circle id="XMLID_610_" class="st12" cx="23.2" cy="28.2" r="2.7"/>
	<circle id="XMLID_612_" class="st18" cx="39.7" cy="26.9" r="2.7"/>
	<circle id="XMLID_760_" class="st12" cx="39.7" cy="26.9" r="2.4"/>
	<polyline id="XMLID_756_" class="st8" points="41,21.5 51.2,21.5 51.2,43.1 14.8,43.1 14.8,21.5 24.9,21.5 	"/>
	<line id="XMLID_627_" class="st8" x1="18.1" y1="20.5" x2="22.8" y2="20.5"/>
	<line id="XMLID_626_" class="st8" x1="43.1" y1="20.5" x2="47.8" y2="20.5"/>
	<line id="XMLID_758_" class="st8" x1="12.7" y1="44.9" x2="51.9" y2="44.9"/>
	<line id="XMLID_757_" class="st8" x1="10.4" y1="47" x2="28.4" y2="47"/>
	<line id="XMLID_759_" class="st8" x1="53.6" y1="47" x2="29.8" y2="47"/>
</g>
<g id="XMLID_782_" class="st7">
	<g id="XMLID_690_" class="st21">
		<path id="XMLID_649_" class="st0" d="M18.1,46.8c0-7.6,6.2-13.8,13.8-13.8c7.6,0,13.8,6.2,13.8,13.8"/>
		<path id="XMLID_698_" class="st0" d="M36.7,33.9c2.1,3.4,3.4,7.9,3.4,12.9"/>
		<path id="XMLID_697_" class="st0" d="M27.4,33.9c-2.1,3.4-3.4,7.9-3.4,12.9"/>
		<line id="XMLID_694_" class="st0" x1="31.9" y1="33.1" x2="31.9" y2="46.8"/>
		<line id="XMLID_692_" class="st0" x1="19.4" y1="40.3" x2="44" y2="40.3"/>
		<line id="XMLID_507_" class="st0" x1="15.6" y1="46.8" x2="48" y2="46.8"/>
	</g>
	<path id="XMLID_777_" class="st12" d="M44.6,24.6c0-4.1-3.3-7.4-7.4-7.4c-2.1,0-3.9,0.9-5.3,2.2c-1.3-1.4-3.2-2.2-5.3-2.2
		c-4.1,0-7.4,3.3-7.4,7.4c0,2,0.8,3.8,2.1,5.1l10.6,10.6l10.9-10.8c0.1-0.1,0.4-0.5,0.4-0.5C44,27.7,44.6,26.2,44.6,24.6z"/>
	<path id="XMLID_776_" class="st8" d="M37.2,17.2c-2.1,0-3.9,0.9-5.3,2.2c-1.3-1.4-3.2-2.2-5.3-2.2c-4.1,0-7.4,3.3-7.4,7.4
		c0,2,0.8,3.8,2.1,5.1"/>
	<path id="XMLID_762_" class="st8" d="M44.5,31.9c0,0.5-1.1,0.5-1.1,1c0,0.5,1.1,0.5,1.1,1c0,0.5-1.1,0.5-1.1,1c0,0.5,1.1,0.5,1.1,1
		"/>
	<path id="XMLID_775_" class="st8" d="M14.9,23.9c0,0.5-1.1,0.5-1.1,1c0,0.5,1.1,0.5,1.1,1c0,0.5-1.1,0.5-1.1,1c0,0.5,1.1,0.5,1.1,1
		"/>
	<path id="XMLID_781_" class="st8" d="M14.9,38c0,0.5-1.1,0.5-1.1,1c0,0.5,1.1,0.5,1.1,1c0,0.5-1.1,0.5-1.1,1c0,0.5,1.1,0.5,1.1,1"
		/>
	<path id="XMLID_766_" class="st11" d="M39.1,33.7c-1.3,0-2.4,1.1-2.4,2.4c0,1.3,2.4,4,2.4,4s2.4-2.7,2.4-4
		C41.4,34.8,40.4,33.7,39.1,33.7z M39.1,37.3c-0.8,0-1.4-0.6-1.4-1.4s0.6-1.4,1.4-1.4c0.8,0,1.4,0.6,1.4,1.4S39.8,37.3,39.1,37.3z"
		/>
	<path id="XMLID_186_" class="st11" d="M21.2,35.7c-1,0-1.8,0.8-1.8,1.8c0,1,1.8,3,1.8,3s1.8-2,1.8-3C23,36.4,22.2,35.7,21.2,35.7z
		 M21.2,38.3c-0.6,0-1-0.5-1-1c0-0.6,0.5-1,1-1c0.6,0,1,0.5,1,1C22.2,37.8,21.8,38.3,21.2,38.3z"/>
	<path id="XMLID_505_" class="st11" d="M29.7,36c-2,0-3.7,1.7-3.7,3.7c0,2,3.7,6.2,3.7,6.2s3.7-4.2,3.7-6.2
		C33.4,37.6,31.8,36,29.7,36z M29.7,41.4c-1.2,0-2.1-1-2.1-2.1c0-1.2,1-2.1,2.1-2.1c1.2,0,2.1,1,2.1,2.1
		C31.9,40.5,30.9,41.4,29.7,41.4z"/>
	<g id="XMLID_764_" class="st21">
		<line id="XMLID_769_" class="st0" x1="17.3" y1="33.4" x2="19.5" y2="33.4"/>
		<line id="XMLID_765_" class="st0" x1="18.4" y1="34.5" x2="18.4" y2="32.4"/>
	</g>
	<g id="XMLID_504_" class="st21">
		<line id="XMLID_771_" class="st0" x1="46.9" y1="25.6" x2="49" y2="25.6"/>
		<line id="XMLID_770_" class="st0" x1="48" y1="26.7" x2="48" y2="24.5"/>
	</g>
	<g id="XMLID_778_" class="st21">
		<line id="XMLID_780_" class="st0" x1="48" y1="39.3" x2="50.1" y2="39.3"/>
		<line id="XMLID_779_" class="st0" x1="49" y1="40.3" x2="49" y2="38.2"/>
	</g>
</g>
<g id="XMLID_802_" class="st7">
	<circle id="XMLID_810_" class="st11" cx="32.6" cy="20.8" r="6.4"/>
	<circle id="XMLID_809_" class="st20" cx="32.6" cy="20.8" r="4"/>
	<polygon id="XMLID_797_" class="st29" points="53.3,49.6 43.5,37 33.2,49.6 	"/>
	<polygon id="XMLID_798_" class="st29" points="31.3,49.6 21.5,37 11.2,49.6 	"/>
	<polygon id="XMLID_796_" class="st14" points="45.2,49.3 32.6,33.1 19.3,49.3 	"/>
	<line id="XMLID_800_" class="st8" x1="10" y1="49.6" x2="54" y2="49.6"/>
	<line id="XMLID_811_" class="st8" x1="48.6" y1="44.5" x2="48.6" y2="49.6"/>
	<polygon id="XMLID_783_" class="st18" points="29.1,37 32.2,40.1 35.9,37 32.6,32.9 	"/>
	<polyline id="XMLID_799_" class="st8" points="25.4,41.9 32.6,32.9 39.6,41.8 	"/>
	<circle id="XMLID_785_" class="st12" cx="48.6" cy="44.5" r="2.5"/>
	<circle id="XMLID_784_" class="st8" cx="48.6" cy="44.5" r="2.5"/>
	<line id="XMLID_788_" class="st8" x1="41.8" y1="44.5" x2="41.8" y2="49.6"/>
	<circle id="XMLID_787_" class="st12" cx="41.8" cy="44.5" r="2.5"/>
	<circle id="XMLID_786_" class="st8" cx="41.8" cy="44.5" r="2.5"/>
	<line id="XMLID_794_" class="st8" x1="22.7" y1="44.6" x2="22.7" y2="49.6"/>
	<circle id="XMLID_793_" class="st12" cx="22.7" cy="44.6" r="2.5"/>
	<circle id="XMLID_792_" class="st8" cx="22.7" cy="44.6" r="2.5"/>
	<line id="XMLID_791_" class="st8" x1="15.9" y1="44.6" x2="15.9" y2="49.6"/>
	<circle id="XMLID_790_" class="st12" cx="15.9" cy="44.6" r="2.5"/>
	<circle id="XMLID_789_" class="st8" cx="15.9" cy="44.6" r="2.5"/>
	<path id="XMLID_801_" class="st8" d="M30.6,28.7c2.2,0,2.2,1.5,4.5,1.5c2.2,0,2.2-1.5,4.5-1.5c2.2,0,2.2,1.5,4.5,1.5
		c2.2,0,2.2-1.5,4.5-1.5s2.2,1.5,4.5,1.5"/>
	<path id="XMLID_795_" class="st8" d="M31.7,24.8c1.7,0,1.7,1.1,3.3,1.1c1.7,0,1.7-1.1,3.3-1.1c1.7,0,1.7,1.1,3.3,1.1
		c1.7,0,1.7-1.1,3.3-1.1c1.7,0,1.7,1.1,3.3,1.1"/>
</g>
<g id="XMLID_836_" class="st7">
	<path id="XMLID_814_" class="st14" d="M27.7,26.6h-2.6c-0.5,0-1-0.5-1-1V12.2c0-0.6,0.5-1,1-1h2.6c0.5,0,1,0.4,1,1v13.4
		C28.7,26.2,28.2,26.6,27.7,26.6z"/>
	<path id="XMLID_817_" class="st14" d="M39.6,26.6H37c-0.5,0-1-0.5-1-1V12.2c0-0.6,0.5-1,1-1h2.6c0.5,0,1,0.4,1,1v13.4
		C40.6,26.2,40.2,26.6,39.6,26.6z"/>
	<path id="XMLID_827_" class="st8" d="M27.7,26.6h-2.6c-0.5,0-1-0.5-1-1V12.2c0-0.6,0.5-1,1-1h2.6c0.5,0,1,0.4,1,1v13.4
		C28.7,26.2,28.2,26.6,27.7,26.6z"/>
	<path id="XMLID_825_" class="st8" d="M39.6,26.6H37c-0.5,0-1-0.5-1-1V12.2c0-0.6,0.5-1,1-1h2.6c0.5,0,1,0.4,1,1v13.4
		C40.6,26.2,40.2,26.6,39.6,26.6z"/>
	<path id="XMLID_821_" class="st12" d="M19,38.7h-0.8c-1.1,0-2.1-0.9-2.1-2.1v-4.7c0-1.1,0.9-2.1,2.1-2.1H19c1.1,0,2.1,0.9,2.1,2.1
		v4.7C21,37.7,20.1,38.7,19,38.7z"/>
	<path id="XMLID_828_" class="st16" d="M22.3,33.1v-1.9c0-1.1-0.9-2.1-2.1-2.1h-3.4c-1.1,0-2.1,0.9-2.1,2.1v1.9H22.3z"/>
	<path id="XMLID_822_" class="st12" d="M19,49.2h-0.8c-1.1,0-2.1-0.9-2.1-2.1v-4.7c0-1.1,0.9-2.1,2.1-2.1H19c1.1,0,2.1,0.9,2.1,2.1
		v4.7C21,48.2,20.1,49.2,19,49.2z"/>
	<path id="XMLID_824_" class="st12" d="M45.7,38.4h-0.8c-1.1,0-2.1-0.9-2.1-2.1v-4.7c0-1.1,0.9-2.1,2.1-2.1h0.8
		c1.1,0,2.1,0.9,2.1,2.1v4.7C47.7,37.4,46.8,38.4,45.7,38.4z"/>
	<path id="XMLID_823_" class="st12" d="M45.7,48.9h-0.8c-1.1,0-2.1-0.9-2.1-2.1v-4.7c0-1.1,0.9-2.1,2.1-2.1h0.8
		c1.1,0,2.1,0.9,2.1,2.1v4.7C47.7,47.9,46.8,48.9,45.7,48.9z"/>
	<path id="XMLID_803_" class="st9" d="M39.3,51.1H25.3c-2.8,0-5-2.3-5-5V21.5c0-2.8,2.3-5,5-5h13.9c2.8,0,5,2.3,5,5v24.7
		C44.3,48.9,42,51.1,39.3,51.1z"/>
	<path id="XMLID_808_" class="st14" d="M41.4,17.3c0,0.2-0.1,0.5-0.1,0.7v32c0,0.3,0,0.5,0.1,0.7c1.7-0.7,2.9-2.3,2.9-4.2V21.5
		C44.3,19.6,43.1,18,41.4,17.3z"/>
	<path id="XMLID_806_" class="st14" d="M23,17.9c0,0.2,0.1,0.5,0.1,0.7V50c0,0.3,0,0.5-0.1,0.7c-1.7-0.7-2.9-2.3-2.9-4.1V22
		C20.1,20.1,21.3,18.5,23,17.9z"/>
	<path id="XMLID_804_" class="st16" d="M39.3,32.4H25.3c-2.8,0-5-2.3-5-5v-5.9c0-2.8,2.3-5,5-5h13.9c2.8,0,5,2.3,5,5v5.9
		C44.3,30.2,42,32.4,39.3,32.4z"/>
	<path id="XMLID_805_" class="st29" d="M39.5,46.9H25.2c-2.6,0-4.8-2.2-4.8-4.8v-0.3c0-2.6,2.2-4.8,4.8-4.8h14.3
		c2.6,0,4.8,2.2,4.8,4.8v0.3C44.3,44.8,42.1,46.9,39.5,46.9z"/>
	<rect id="XMLID_819_" x="20.6" y="23" class="st11" width="23.3" height="2.8"/>
	<line id="XMLID_826_" class="st8" x1="27" y1="28.6" x2="27" y2="41.3"/>
	<line id="XMLID_830_" class="st8" x1="14.8" y1="32.6" x2="20.3" y2="32.6"/>
	<path id="XMLID_831_" class="st16" d="M49.2,33.1v-1.9c0-1.1-0.9-2.1-2.1-2.1h-3.4c-1.1,0-2.1,0.9-2.1,2.1v1.9H49.2z"/>
	<line id="XMLID_829_" class="st8" x1="44.1" y1="32.6" x2="49.2" y2="32.6"/>
	<path id="XMLID_835_" class="st16" d="M22.3,43.1v-1.9c0-1.1-0.9-2.1-2.1-2.1h-3.4c-1.1,0-2.1,0.9-2.1,2.1v1.9H22.3z"/>
	<line id="XMLID_834_" class="st8" x1="14.8" y1="42.6" x2="20.3" y2="42.6"/>
	<path id="XMLID_833_" class="st16" d="M49.2,43.1v-1.9c0-1.1-0.9-2.1-2.1-2.1h-3.4c-1.1,0-2.1,0.9-2.1,2.1v1.9H49.2z"/>
	<line id="XMLID_832_" class="st8" x1="44.1" y1="42.6" x2="49.2" y2="42.6"/>
	<line id="XMLID_815_" class="st8" x1="28.7" y1="20.1" x2="35.9" y2="20.1"/>
	<line id="XMLID_812_" class="st8" x1="37.3" y1="28.6" x2="37.3" y2="41.6"/>
	<rect id="XMLID_807_" x="26.2" y="31.6" class="st11" width="1.7" height="3.7"/>
	<rect id="XMLID_813_" x="36.5" y="31.6" class="st11" width="1.7" height="3.7"/>
	<path id="XMLID_820_" class="st8" d="M44.3,21.6V46c0,2.8-2.3,5.2-5.2,5.2H25.5c-2.8,0-5.2-2.3-5.2-5.2V21.6"/>
	<rect id="XMLID_816_" x="36.4" y="43.5" class="st11" width="1.7" height="9.3"/>
	<rect id="XMLID_818_" x="26.3" y="43.5" class="st11" width="1.7" height="9.3"/>
</g>
<g id="XMLID_837_" class="st7">
	<rect id="XMLID_908_" x="14.1" y="13.5" class="st14" width="31.5" height="37"/>
	<rect id="XMLID_907_" x="14.1" y="13.5" class="st11" width="31.5" height="4.1"/>
	<polyline id="XMLID_852_" class="st8" points="45.1,17.7 45.1,13.5 14.1,13.5 14.1,50.2 38.6,50.2 	"/>
	<circle id="XMLID_905_" class="st18" cx="16.9" cy="15.8" r="0.6"/>
	<circle id="XMLID_904_" class="st18" cx="19.5" cy="15.8" r="0.6"/>
	<circle id="XMLID_903_" class="st18" cx="22.1" cy="15.8" r="0.6"/>
	<rect id="XMLID_902_" x="17" y="25" class="st11" width="6.8" height="6.8"/>
	<rect id="XMLID_901_" x="17" y="33.6" class="st18" width="6.8" height="6.8"/>
	<g id="XMLID_871_" class="st21">
		<g id="XMLID_899_">
			<rect id="XMLID_900_" x="26.1" y="25.7" class="st4" width="9.4" height="0.7"/>
		</g>
		<g id="XMLID_897_">
			<rect id="XMLID_898_" x="26.1" y="28.1" class="st4" width="8.4" height="0.5"/>
		</g>
		<g id="XMLID_894_">
			<rect id="XMLID_895_" x="26.1" y="33.6" class="st4" width="9.4" height="0.7"/>
		</g>
		<g id="XMLID_892_">
			<rect id="XMLID_893_" x="26.1" y="36.1" class="st4" width="4.2" height="0.5"/>
		</g>
		<g id="XMLID_890_">
			<rect id="XMLID_891_" x="30.8" y="36.1" class="st4" width="4.8" height="0.5"/>
		</g>
		<g id="XMLID_888_">
			<rect id="XMLID_889_" x="36.1" y="36.1" class="st4" width="6.3" height="0.5"/>
		</g>
		<g id="XMLID_886_">
			<rect id="XMLID_887_" x="26.1" y="29.4" class="st4" width="5" height="0.5"/>
		</g>
		<g id="XMLID_884_">
			<rect id="XMLID_885_" x="26.1" y="37.7" class="st4" width="6.9" height="0.5"/>
		</g>
		<g id="XMLID_882_">
			<rect id="XMLID_883_" x="26.1" y="39.1" class="st4" width="5.8" height="0.5"/>
		</g>
		<g id="XMLID_880_">
			<rect id="XMLID_881_" x="33.5" y="37.7" class="st4" width="4.5" height="0.5"/>
		</g>
		<g id="XMLID_878_">
			<rect id="XMLID_879_" x="32.1" y="29.4" class="st4" width="6.6" height="0.5"/>
		</g>
		<g id="XMLID_876_">
			<rect id="XMLID_877_" x="26.1" y="30.7" class="st4" width="8.4" height="0.5"/>
		</g>
		<g id="XMLID_874_">
			<rect id="XMLID_875_" x="35" y="28.1" class="st4" width="2.2" height="0.5"/>
		</g>
		<g id="XMLID_872_">
			<rect id="XMLID_873_" x="37.8" y="28.1" class="st4" width="4.7" height="0.5"/>
		</g>
	</g>
	<rect id="XMLID_870_" x="17.3" y="42.3" class="st9" width="3.1" height="3.1"/>
	<rect id="XMLID_869_" x="21.7" y="42.3" class="st18" width="3.1" height="3.1"/>
	<rect id="XMLID_868_" x="26.1" y="42.3" class="st9" width="3.1" height="3.1"/>
	<rect id="XMLID_867_" x="30.5" y="42.3" class="st18" width="3.1" height="3.1"/>
	<rect id="XMLID_866_" x="34.9" y="42.3" class="st9" width="3.1" height="3.1"/>
	<rect id="XMLID_865_" x="39.3" y="42.3" class="st18" width="3.1" height="3.1"/>
	<g id="XMLID_838_" class="st21">
		<g id="XMLID_840_">
			<line id="XMLID_850_" class="st0" x1="21.7" y1="23.8" x2="21.7" y2="26.5"/>
			<line id="XMLID_849_" class="st0" x1="24.8" y1="24.6" x2="23.4" y2="27"/>
			<line id="XMLID_848_" class="st0" x1="27" y1="26.9" x2="24.7" y2="28.2"/>
			<line id="XMLID_847_" class="st0" x1="27.9" y1="30" x2="25.1" y2="29.9"/>
			<line id="XMLID_846_" class="st0" x1="21.6" y1="36.1" x2="21.7" y2="33.4"/>
			<line id="XMLID_845_" class="st0" x1="18.6" y1="35.2" x2="19.9" y2="32.9"/>
			<line id="XMLID_844_" class="st0" x1="16.3" y1="33" x2="18.7" y2="31.6"/>
			<line id="XMLID_843_" class="st0" x1="15.5" y1="29.8" x2="18.3" y2="29.9"/>
			<line id="XMLID_842_" class="st0" x1="16.4" y1="26.8" x2="18.8" y2="28.2"/>
			<line id="XMLID_841_" class="st0" x1="18.7" y1="24.5" x2="20" y2="26.9"/>
		</g>
		<polygon id="XMLID_839_" class="st4" points="25.2,32.6 27.6,35 26.8,35.8 24.4,33.4 23.9,35.2 21.7,29.9 27,32.1 		"/>
	</g>
	<polygon id="XMLID_912_" class="st9" points="49.9,40 49.9,49.3 48.8,50.5 40.9,50.5 40.1,49.7 40.1,40 40.9,39.2 49.3,39.2 	"/>
	<polygon id="XMLID_911_" class="st9" points="49.9,19.6 49.9,38.3 49.3,39.2 40.9,39.2 40.1,38.3 40.1,19.2 40.9,18.4 48.8,18.4 	
		"/>
	<polygon id="XMLID_910_" class="st12" points="40.1,49.7 40.9,50.5 42.5,50.5 42.5,39.2 40.9,39.2 40.1,40 	"/>
	<polygon id="XMLID_909_" class="st12" points="42.5,18.4 40.9,18.4 40.1,19.2 40.1,38.3 40.9,39.2 42.5,39.2 	"/>
	<polygon id="XMLID_864_" class="st12" points="47.1,50.5 48.8,50.5 49.9,49.3 49.9,40 49.3,39.2 47.1,39.2 	"/>
	<polygon id="XMLID_863_" class="st12" points="47.1,39.2 49.3,39.2 49.9,38.3 49.9,19.6 48.8,18.4 47.1,18.4 	"/>
	<line id="XMLID_861_" class="st8" x1="44.1" y1="41.7" x2="44.1" y2="48"/>
	<line id="XMLID_860_" class="st8" x1="46" y1="41.7" x2="46" y2="48"/>
	<line id="XMLID_859_" class="st8" x1="44.1" y1="21.1" x2="44.1" y2="35.6"/>
	<line id="XMLID_858_" class="st8" x1="45.9" y1="21.1" x2="45.9" y2="35.6"/>
	<rect id="XMLID_857_" x="47.8" y="38.7" class="st23" width="0.9" height="0.9"/>
	<rect id="XMLID_856_" x="46.2" y="38.7" class="st23" width="0.9" height="0.9"/>
	<rect id="XMLID_855_" x="44.5" y="38.7" class="st23" width="0.9" height="0.9"/>
	<rect id="XMLID_854_" x="42.9" y="38.7" class="st23" width="0.9" height="0.9"/>
	<rect id="XMLID_853_" x="41.2" y="38.7" class="st23" width="0.9" height="0.9"/>
</g>
<g id="XMLID_851_" class="st7">
	<rect id="XMLID_998_" x="15.2" y="17.9" class="st9" width="33.6" height="29.5"/>
	<rect id="XMLID_997_" x="15.2" y="20.3" class="st31" width="33.6" height="5"/>
	<rect id="XMLID_996_" x="15.2" y="17.9" class="st11" width="33.6" height="6.1"/>
	<polyline id="XMLID_995_" class="st8" points="48.8,47.4 15.2,47.4 15.2,17.9 	"/>
	<line id="XMLID_994_" class="st8" x1="18.8" y1="16.6" x2="18.8" y2="20.7"/>
	<line id="XMLID_993_" class="st8" x1="24.1" y1="16.6" x2="24.1" y2="20.7"/>
	<line id="XMLID_992_" class="st8" x1="29.4" y1="16.6" x2="29.4" y2="20.7"/>
	<line id="XMLID_991_" class="st8" x1="34.8" y1="16.6" x2="34.8" y2="20.7"/>
	<line id="XMLID_990_" class="st8" x1="40.1" y1="16.6" x2="40.1" y2="20.7"/>
	<line id="XMLID_989_" class="st8" x1="45.4" y1="16.6" x2="45.4" y2="20.7"/>
	<path id="XMLID_1004_" class="st12" d="M32.4,28.9c-2.7,0-5,2.2-5,5c0,2.7,5,8.4,5,8.4s5-5.6,5-8.4C37.3,31.1,35.1,28.9,32.4,28.9z
		 M32.4,36.3c-1.6,0-2.9-1.3-2.9-2.9c0-1.6,1.3-2.9,2.9-2.9c1.6,0,2.9,1.3,2.9,2.9C35.2,35,34,36.3,32.4,36.3z"/>
	<g id="XMLID_380_" class="st21">
		<line id="XMLID_416_" class="st0" x1="32.2" y1="25.3" x2="32.2" y2="26.4"/>
		<line id="XMLID_415_" class="st0" x1="34" y1="25.4" x2="33.8" y2="26.6"/>
		<line id="XMLID_414_" class="st0" x1="35.7" y1="25.9" x2="35.3" y2="26.9"/>
		<line id="XMLID_413_" class="st0" x1="37.4" y1="26.6" x2="36.8" y2="27.6"/>
		<line id="XMLID_412_" class="st0" x1="38.9" y1="27.6" x2="38.1" y2="28.5"/>
		<line id="XMLID_411_" class="st0" x1="40.1" y1="28.9" x2="39.3" y2="29.6"/>
		<line id="XMLID_410_" class="st0" x1="41.2" y1="30.4" x2="40.2" y2="30.9"/>
		<line id="XMLID_409_" class="st0" x1="42" y1="32" x2="40.9" y2="32.4"/>
		<line id="XMLID_408_" class="st0" x1="42.4" y1="33.7" x2="41.3" y2="33.9"/>
		<line id="XMLID_407_" class="st0" x1="42.6" y1="35.5" x2="41.5" y2="35.5"/>
		<line id="XMLID_406_" class="st0" x1="42.4" y1="37.3" x2="41.3" y2="37.1"/>
		<line id="XMLID_405_" class="st0" x1="42" y1="39" x2="40.9" y2="38.6"/>
		<line id="XMLID_404_" class="st0" x1="41.2" y1="40.7" x2="40.2" y2="40.1"/>
		<line id="XMLID_403_" class="st0" x1="40.2" y1="42.2" x2="39.3" y2="41.4"/>
		<line id="XMLID_402_" class="st0" x1="38.9" y1="43.4" x2="38.2" y2="42.5"/>
		<line id="XMLID_401_" class="st0" x1="37.4" y1="44.4" x2="36.9" y2="43.4"/>
		<line id="XMLID_400_" class="st0" x1="35.8" y1="45.2" x2="35.4" y2="44.1"/>
		<line id="XMLID_399_" class="st0" x1="34" y1="45.6" x2="33.9" y2="44.5"/>
		<line id="XMLID_398_" class="st0" x1="32.2" y1="45.8" x2="32.3" y2="44.6"/>
		<line id="XMLID_397_" class="st0" x1="30.4" y1="45.6" x2="30.7" y2="44.5"/>
		<line id="XMLID_396_" class="st0" x1="28.7" y1="45.1" x2="29.1" y2="44"/>
		<line id="XMLID_395_" class="st0" x1="27.1" y1="44.3" x2="27.7" y2="43.3"/>
		<line id="XMLID_394_" class="st0" x1="25.6" y1="43.3" x2="26.4" y2="42.4"/>
		<line id="XMLID_393_" class="st0" x1="24.4" y1="42" x2="25.3" y2="41.3"/>
		<line id="XMLID_392_" class="st0" x1="23.4" y1="40.5" x2="24.4" y2="39.9"/>
		<line id="XMLID_391_" class="st0" x1="22.7" y1="38.8" x2="23.8" y2="38.5"/>
		<line id="XMLID_390_" class="st0" x1="22.2" y1="37.1" x2="23.4" y2="36.9"/>
		<line id="XMLID_389_" class="st0" x1="22.1" y1="35.3" x2="23.3" y2="35.3"/>
		<line id="XMLID_388_" class="st0" x1="22.3" y1="33.5" x2="23.5" y2="33.7"/>
		<line id="XMLID_387_" class="st0" x1="22.9" y1="31.7" x2="23.9" y2="32.2"/>
		<line id="XMLID_386_" class="st0" x1="23.7" y1="30.1" x2="24.6" y2="30.8"/>
		<line id="XMLID_385_" class="st0" x1="24.7" y1="28.7" x2="25.6" y2="29.5"/>
		<line id="XMLID_384_" class="st0" x1="26.1" y1="27.5" x2="26.8" y2="28.4"/>
		<line id="XMLID_383_" class="st0" x1="27.6" y1="26.5" x2="28.1" y2="27.5"/>
		<line id="XMLID_382_" class="st0" x1="29.2" y1="25.8" x2="29.6" y2="26.9"/>
		<line id="XMLID_381_" class="st0" x1="30.8" y1="25.4" x2="30.9" y2="26.6"/>
	</g>
</g>
<g id="XMLID_906_" class="st7">
	<g id="XMLID_862_" class="st21">
		<circle id="XMLID_1186_" class="st6" cx="32.1" cy="27.6" r="11.1"/>
		<path id="XMLID_969_" class="st4" d="M42.6,24.1C42.8,24.1,42.6,24.1,42.6,24.1L42.6,24.1z M42.7,24.3
			C42.6,24.6,42.7,24.4,42.7,24.3L42.7,24.3z M38.1,23.2c0,0-2-1.9-0.5-2c0,0,0-0.1,0-0.1c0,0,0,0,0,0.1c0-0.1-0.3,0-0.5,0
			c-0.1,0,0.1-0.1,0-0.1c0,0,0-0.1,0-0.1c0.1,0,0.1,0,0-0.1c0,0,0.3-0.2,0.4-0.1c0,0-0.1-0.1,0-0.1c0-0.1-1.1-1.2-1.8-1.7
			c0,0,0,0-0.1,0c-0.2-0.1-0.4-0.2-0.5-0.3c0.1,0,0-0.1,0-0.1c1.2,0.3,1.8-1.1,2.8-0.7c0,0,0.1,0,0.1,0c0,0,0,0,0,0c0,0,0,0,0,0
			c0,0,0,0,0.1,0.1c-0.1-0.2,3.1,2.1,2.8,2.6c0,0,0,0,0,0c0,0,0,0-0.1,0.1c0.1,0,0.1,0.1,0,0.1c0.2,0.1,0.2,0,0.1,0
			c0.4,0.1,0.3,0.4,0.3,0.6c0-0.1-1.2,0.1-0.1,0.2C39.1,21.3,38.8,22.6,38.1,23.2z M37.5,20.7C37.5,20.7,37.5,20.7,37.5,20.7
			L37.5,20.7z M37.5,20.9C37.5,20.9,37.6,20.8,37.5,20.9L37.5,20.9z M37.2,21.8C37.2,21.7,37.1,21.7,37.2,21.8L37.2,21.8z
			 M37.3,21.4C37.4,21.4,37.4,21.4,37.3,21.4L37.3,21.4z M37.5,21.3C37.3,21.3,37.5,21.3,37.5,21.3L37.5,21.3z M37.4,21.6
			C37.4,21.6,37.5,21.7,37.4,21.6L37.4,21.6z M37.5,21.5C37.7,21.7,37.3,21.3,37.5,21.5L37.5,21.5z M40.6,20.7
			C40.6,20.7,40.7,20.7,40.6,20.7L40.6,20.7z M40.4,21.3C40.6,21.2,40.2,21.3,40.4,21.3L40.4,21.3z M40.5,21.4
			C40.6,21.3,40.3,21.4,40.5,21.4L40.5,21.4z M40.6,20.8C40.5,20.8,40.8,20.8,40.6,20.8L40.6,20.8z M41.1,21.5
			C41.1,21.5,41.1,21.5,41.1,21.5L41.1,21.5z M40.9,20.8C40.8,20.8,40.8,20.8,40.9,20.8C40.8,20.8,40.8,20.8,40.9,20.8z M40.4,21.3
			C40.4,21.3,40.4,21.3,40.4,21.3L40.4,21.3z M40.9,20.7C40.9,20.7,40.9,20.7,40.9,20.7C40.9,20.7,40.8,20.7,40.9,20.7
			C40.9,20.7,40.9,20.7,40.9,20.7z M37.4,20.7C37.5,20.7,37.3,20.7,37.4,20.7L37.4,20.7z M25.4,21.5C25.4,21.5,25.5,21.4,25.4,21.5
			C25.5,21.4,25.4,21.5,25.4,21.5z M23.4,22C23.6,22.1,22.9,22,23.4,22L23.4,22z M25.6,21.4C25.6,21.4,25.6,21.4,25.6,21.4
			C25.6,21.4,25.6,21.4,25.6,21.4z M31.2,18.7C31.3,18.8,31.2,18.6,31.2,18.7L31.2,18.7z M31.4,18.8C31.5,18.8,31.4,18.8,31.4,18.8
			C31.4,18.8,31.4,18.8,31.4,18.8C31.4,18.8,31.4,18.8,31.4,18.8C31.3,18.8,31.3,18.8,31.4,18.8C31.2,18.8,31.3,18.8,31.4,18.8
			C31.4,18.8,31.4,18.8,31.4,18.8z M31.4,18.8C31.4,18.8,31.5,18.8,31.4,18.8L31.4,18.8z M31.3,18.2C31.4,18.2,31.4,18.2,31.3,18.2
			L31.3,18.2z M31.3,18.2C31.4,18.2,31.5,18.2,31.3,18.2L31.3,18.2z M31.4,18.1C31.4,18.1,31.4,18.1,31.4,18.1L31.4,18.1z M31.2,18
			C31.8,18.3,31.9,18.3,31.2,18L31.2,18z M31.2,18C31.3,18,31.2,18,31.2,18L31.2,18z M35.2,22.7C35.2,22.7,35.2,22.7,35.2,22.7
			C35.2,22.6,35.1,22.7,35.2,22.7z M31.2,18.5C31.2,18.5,30.9,18.5,31.2,18.5C31.2,18.5,31.2,18.5,31.2,18.5z M31.7,18.4
			c0,0-0.1-0.1-0.1-0.1C31.5,18.4,31.5,18.4,31.7,18.4z M31.9,17.9C32.2,17.9,31.7,17.8,31.9,17.9L31.9,17.9z M34.3,19.2
			C34.3,19.2,34.2,19.2,34.3,19.2C34.3,19.2,34.3,19.2,34.3,19.2z M33.2,27.8C33.2,27.8,33.2,27.8,33.2,27.8
			C33.2,27.8,33.3,27.8,33.2,27.8z M31.8,18.7C31.9,18.8,31.6,18.7,31.8,18.7L31.8,18.7z M31.8,18.9C31.7,18.8,31.8,18.9,31.8,18.9
			L31.8,18.9z M31.7,18.7C31.6,18.7,31.7,18.7,31.7,18.7L31.7,18.7z M31.5,18.7C31.1,18.9,32.6,18.4,31.5,18.7L31.5,18.7z
			 M31.8,18.8C31.8,18.8,31.8,18.8,31.8,18.8C31.6,18.7,31.9,18.8,31.8,18.8z M36.3,18c-0.1,0-0.2,0-0.3,0C36.3,18.1,36,18,36.3,18z
			 M33.8,17.7C33.7,17.7,33.7,17.7,33.8,17.7C33.7,17.7,33.8,17.7,33.8,17.7z M33,17.5C33,17.5,33,17.5,33,17.5
			C33,17.5,33,17.5,33,17.5z M34.4,17.9C34.4,17.9,34.4,17.9,34.4,17.9C34.4,17.9,34.4,17.9,34.4,17.9z M34.5,17.9
			C34.4,17.9,34.4,17.9,34.5,17.9C34.4,17.9,34.4,17.9,34.5,17.9C34.4,17.9,34.4,17.9,34.5,17.9C34.4,17.9,34.4,17.9,34.5,17.9z
			 M32.3,17.9c-0.3-0.4,1.3,0,1.8,0.3c0-0.1-0.3-0.2-0.1-0.2c-0.1,0-0.1-0.1,0-0.1c-0.1,0-0.1,0,0.1,0c-0.6,0.1-0.8-0.3-1-0.3
			c0.1,0,0,0,0,0c0,0,0,0-0.1-0.1c0.2,0.1,3.8-0.4,3.8,0.3c0,0,0,0,0,0.1c0,0.2-0.8,0.1-0.9,0.1c0.1,0,0.1,0,0.2,0.1
			c-0.6,0-0.8,0.4-1.4,0.4c-0.1,0,0.2,0.1,0.1,0c0.4,0.3-0.7,1-1.6,0.5c0,0,0-0.1,0-0.2c0-0.3,0.5,0,0.6-0.1c-0.1,0-0.1,0-0.1,0
			c-0.1,0,0,0,0.1-0.1c-0.1,0-0.3-0.1-0.3-0.2C32.9,18.5,32.5,18.3,32.3,17.9C32.3,17.9,32.3,17.9,32.3,17.9
			C32.3,17.9,32.3,17.9,32.3,17.9z M34.9,17.5C34.9,17.4,34.8,17.5,34.9,17.5L34.9,17.5z M33.7,17.5C33.7,17.4,33.7,17.5,33.7,17.5
			L33.7,17.5z M33.8,17.7C33.7,17.7,33.7,17.7,33.8,17.7C33.4,17.7,33.6,17.8,33.8,17.7z M34.6,18.4C34.5,18.4,34.5,18.4,34.6,18.4
			L34.6,18.4z M34.5,18.4C34.6,18.4,34.5,18.4,34.5,18.4L34.5,18.4z M34.4,17.9C34.5,17.9,34.5,17.9,34.4,17.9
			C34.5,17.9,34.5,17.9,34.4,17.9C34.4,17.9,34.4,17.8,34.4,17.9C34.4,17.9,34.4,17.9,34.4,17.9C34.4,17.9,34.4,17.9,34.4,17.9
			c0,0-0.1,0-0.1,0.1C34.1,18,34.3,17.9,34.4,17.9z M34,18.8C34.1,18.8,34,18.8,34,18.8L34,18.8z M33.7,18.7
			C33.7,18.7,33.7,18.7,33.7,18.7L33.7,18.7z M33.7,18.5C33.7,18.6,33.7,18.5,33.7,18.5L33.7,18.5z M33.6,18.3
			C33.5,18.3,33.7,18.3,33.6,18.3L33.6,18.3z M34.3,18C34.3,18,34.3,17.9,34.3,18L34.3,18z M32.9,18.7
			C32.9,18.7,32.9,18.7,32.9,18.7C32.9,18.7,33.2,18.6,32.9,18.7z M31.5,20.5C31.6,20.5,31.4,20.5,31.5,20.5
			C31.5,20.5,31.5,20.5,31.5,20.5z M33.3,21.3c0,0,0,0.1,0.1,0.1C33.5,21.4,33.3,21.3,33.3,21.3z M30.1,18.2
			C30.1,18.2,29.9,18.2,30.1,18.2L30.1,18.2z M35,22.2C35,22.2,34.9,22.2,35,22.2C34.8,22.2,35,22.3,35,22.2z M30.3,18.3
			C29.8,18.2,31,18.5,30.3,18.3L30.3,18.3z M31.3,20.5C31.3,20.5,31.3,20.5,31.3,20.5C31.2,20.5,31.3,20.5,31.3,20.5z M35.2,19
			C35.2,19,35.3,19,35.2,19C35.2,19,35.1,19,35.2,19z M34,20.8c0,0,0.1,0,0.1-0.1c0,0,0.1,0,0,0c0,0,0,0,0,0
			C34.1,20.7,34.1,20.8,34,20.8C34.1,20.8,34.1,20.8,34,20.8C34.1,20.8,34.1,20.8,34,20.8C34.1,20.8,34,20.8,34,20.8z M33.8,28.3
			C33.8,28.3,33.7,28.3,33.8,28.3C33.7,28.3,33.8,28.4,33.8,28.3z M42.8,24.8C42.8,24.8,42.8,24.8,42.8,24.8
			C42.8,24.8,42.8,24.8,42.8,24.8z M42.7,24.3C42.7,24.3,42.7,24.4,42.7,24.3L42.7,24.3z M33.2,24.8c0,0-0.2,0-0.2,0
			C33.1,24.8,33.1,24.9,33.2,24.8z M32.2,37.7C32.2,37.7,32.2,37.7,32.2,37.7C32.3,37.8,32.2,37.7,32.2,37.7z M32.5,36.6
			C32.5,36.7,32.6,36.8,32.5,36.6L32.5,36.6z M32.4,38c0,0-0.2-0.1-0.1-0.1C32.3,37.9,32.4,38,32.4,38z M34.5,28.8
			C34.9,28.9,34.5,28.8,34.5,28.8L34.5,28.8z M34.5,28.8C34.4,28.8,34.6,28.8,34.5,28.8L34.5,28.8z M33.5,28.4
			C32.1,27.7,32.8,28.1,33.5,28.4L33.5,28.4z M33.5,28.4C33.5,28.4,33.4,28.4,33.5,28.4L33.5,28.4z M32.6,27.9
			C32.8,27.9,32.7,27.9,32.6,27.9L32.6,27.9z M42.1,25.1C43.5,24.9,42,25.1,42.1,25.1C42.1,25.1,42,25.1,42.1,25.1z M42.6,24.2
			C42.7,24.3,42.7,24.3,42.6,24.2C42.6,24.2,42.6,24.2,42.6,24.2z M42.8,24.9C42.9,25.4,43,25.7,42.8,24.9L42.8,24.9z M41,20.7
			C41,20.8,41,20.7,41,20.7L41,20.7z M43,27.5c-0.7,0.5,0.2-0.9,0.1-1.9c-0.1,0.1-0.2,0-0.2-0.1c-0.1,0-0.2,0.1-0.2,0.1
			c0,0.7-0.7,1.9-1.8,3.2c-0.3,0.3-0.2,0.9-0.3,1.3C39.4,33.6,44.2,26.5,43,27.5z M25.4,21.4C25.4,21.4,25.5,21.3,25.4,21.4
			C25.5,21.3,25.4,21.4,25.4,21.4z M23.7,27.1C23.7,27.1,23.7,27.1,23.7,27.1C23.9,27.1,23.7,27,23.7,27.1z M24.9,21.6
			C25,21.8,24.8,21.4,24.9,21.6L24.9,21.6z M23.4,22C23.6,22,22.9,21.9,23.4,22L23.4,22z M23,22.1C23,22.2,23,22.3,23,22.1L23,22.1z
			 M23,22.1C23,22.1,23,22.1,23,22.1L23,22.1z M27.3,23C27.3,23,27.4,23,27.3,23L27.3,23z M27.3,23C26.9,22.8,27.1,22.9,27.3,23
			L27.3,23z M31.3,18.9C31.2,19,31.1,19,31.3,18.9L31.3,18.9z M35.2,22.6C35.2,22.6,35.2,22.6,35.2,22.6
			C35.2,22.6,35.2,22.6,35.2,22.6z M31.5,18.3c-0.1,0,0,0.1,0.1,0.1C31.7,18.3,31.6,18.3,31.5,18.3z M35.6,22.5
			C35.7,22.2,35.5,22.7,35.6,22.5L35.6,22.5z M34.3,19.1C34.3,19.1,34.2,19.1,34.3,19.1C34.3,19.2,34.4,19.1,34.3,19.1z M32.1,18.2
			C32.6,18.7,32.5,18.5,32.1,18.2L32.1,18.2z M33,18.8C33,18.8,33,18.8,33,18.8C32.9,18.7,32.9,18.8,33,18.8z M31.5,20.4
			C31.6,20.3,31.4,20.4,31.5,20.4L31.5,20.4z M32.4,18.9C32.3,18.9,32.4,19,32.4,18.9C32.4,18.9,32.4,18.9,32.4,18.9z M31.5,19.4
			c-0.7,0.2,0.8,0.6,0.6,0.2C31.9,19.3,31.8,19.3,31.5,19.4z M33.8,22C33.8,22,33.8,22,33.8,22C33.7,22,34,22.1,33.8,22z M32.5,19.1
			C32.5,19.1,32.5,19.1,32.5,19.1C32.1,18.7,32.6,19.2,32.5,19.1z M33.3,21.3C33.3,21.3,33.3,21.3,33.3,21.3
			C33.3,21.3,33.3,21.4,33.3,21.3z M33.5,21.9c0,0.1,0,0.1-0.1,0.1c-0.1,0.1-0.1,0.1,0,0c0,0.1,0,0.1,0,0c0.1,0,0.1-0.1,0.3-0.2
			c0,0-0.2,0.1-0.2,0.2C33.5,22,33.5,22,33.5,21.9z M32.9,19c0.2,0.1,0.4,0.1,1.1,0.3C33.7,19.2,33.3,19.1,32.9,19
			C32.9,18.9,32.9,19,32.9,19C32.9,18.9,32.8,18.9,32.9,19C32.8,18.9,32.8,18.9,32.9,19C32.9,19,32.9,19,32.9,19
			C32.9,19,32.9,19,32.9,19z M34.2,19.3C34.2,19.3,34.2,19.3,34.2,19.3L34.2,19.3z M32.2,18.7c0.3,0.1,0.5,0.2,0.6,0.2
			c-0.2-0.1-0.4-0.1-0.5-0.1C32.3,18.8,32.3,18.8,32.2,18.7C32.1,18.7,32.2,18.7,32.2,18.7z M32.5,18.8
			C32.7,18.8,32.5,18.8,32.5,18.8L32.5,18.8z M34,19.2c0.1,0,0.2,0,0.2,0C34.1,19.3,34.1,19.2,34,19.2z M29.9,18.5
			C29.9,18.5,29.9,18.5,29.9,18.5L29.9,18.5z M31,18.7c-0.5-0.3-0.6-0.1-1.1-0.2c0,0-0.1,0-0.1,0c0,0-0.8-0.1-0.8-0.1
			c0.6,0.1,0.8,0.1,0.8,0.1C28.7,18.7,31.2,18.8,31,18.7z M34.1,21.9C34.1,21.9,34,22.1,34.1,21.9L34.1,21.9z M30,18.4
			C29.9,18.4,30,18.4,30,18.4C30.1,18.4,30.1,18.4,30,18.4z M35.3,18.9C35.2,18.9,35.1,18.9,35.3,18.9
			C35.2,18.9,35.3,18.9,35.3,18.9z M34.1,20.8C34.1,20.8,34,20.8,34.1,20.8L34.1,20.8z M33.8,28.3C33.8,28.3,33.7,28.2,33.8,28.3
			C33.7,28.3,33.8,28.3,33.8,28.3z M36.8,24.9C36.7,24.9,36.8,24.9,36.8,24.9L36.8,24.9z M36.8,24.9C36.8,24.9,36.8,24.9,36.8,24.9
			C36.8,24.9,36.8,24.9,36.8,24.9z M40.9,22.8c0,0.1,0.9,0.2,1,0c0.4-0.6-0.7-0.3-0.7-0.4C40.6,22,40.9,22.7,40.9,22.8z M42.8,24.7
			C42.8,24.8,42.9,24.7,42.8,24.7C42.8,24.7,42.8,24.7,42.8,24.7z M42.8,24.2C42.7,24.2,42.7,24.2,42.8,24.2
			C42.7,24.2,42.8,24.2,42.8,24.2z M42.7,24.3C42.8,24.3,42.8,24.3,42.7,24.3L42.7,24.3z M32.5,36.6C32.4,36.5,32.7,36.6,32.5,36.6
			L32.5,36.6z M23.6,21.9C23.7,21.9,23.7,21.9,23.6,21.9L23.6,21.9z M35.4,25C35.4,25,35.4,25,35.4,25L35.4,25z M27.8,19.8
			C27.9,19.7,27.7,19.9,27.8,19.8L27.8,19.8z M35.7,25.1c-0.1,0-0.2-0.1-0.3-0.1C35.5,25.1,35.6,25.2,35.7,25.1z M33.9,20.6
			C34.1,20.6,33.7,20.6,33.9,20.6C33.9,20.6,33.9,20.6,33.9,20.6z M38,32.2c0.8,2.1-5.4,4.1-5,5.8c-0.4,0-0.4,0.1-0.7-0.2
			c0.1,0.1,0-0.2,0-0.4c0,0,0,0,0,0c0,0,0-0.1,0,0c0,0,0.1-0.1,0.1-0.1c0,0-0.1-0.1,0-0.1c0-0.1-0.1,0-0.1,0c0,0,0,0,0,0
			c0,0.1,0,0.1,0,0.1c0-0.1,0-0.1,0,0c0,0,0,0,0,0c0-0.1,0-0.1,0-0.1c0,0,0,0,0,0c-0.2-0.2,0.7-0.7,0.5-1.1c0.8,0.1-0.4-6.6,0.1-6.5
			c-0.7-0.1-3.5-1.6-3.7-3.1c0,0-0.1-0.4-0.3-0.4c0,0.2,0.6,1.1,0.5,1.2c0.1,0-1.7-4-2.1-5c0,0,0,0.1,0,0.1c0,0,0,0,0,0.1
			c0,0-0.1-0.2-0.1,0c0,0,0-0.1,0-0.1c0.1,0-0.1-0.4,0-0.5c-0.1,0.1,0,0.3-0.1,0.4c0.1-0.1,0-0.3-0.1-0.5c0,0,0,0,0,0
			c0,0,0,0.1,0,0.1c0,0,0,0,0,0h0c0,0,0,0,0,0c0,0.1,0,0.3,0,0.4c-0.3-0.5-1.8-1.2-1.9-1.1c-0.3,0.2-0.9,1.1-1.3,0.9c0,0,0,0-0.1,0
			c0,0,0,0,0,0c0,0-0.1,0-0.1,0.1c0.1,0,0.5-0.3,0.7-0.5c0,0,0,0,0-0.1c0,0-0.2-0.1-0.1,0c-0.6-0.2-1.3-0.5-0.2-1.1
			c0.2,0.2,1.9-0.3,3.6-0.4c0,0,0,0.2,0,0c0,0,0,0,0,0c1.2-0.1,2.4,0,3,0.8c0,0,0,0.1,0,0.1c0,0,0-0.1,0,0c-0.1-0.2-0.2-0.4,0.2-0.4
			c-0.1-0.1-2.3-0.5-0.8-0.4c-0.3-0.1-1.1-0.4-0.5-0.6c-0.6,0.2-0.4,0.2-1.1,0.1c0.1,0,0.1-0.1,0-0.1c0.1,0,0.3-0.5,0.2-0.5
			c0,0,0.1,0,0-0.1c0.5,0,2.1,0.5,2.4,0.5c0,0.2-0.1,0.9,0.4,1c-0.4,0,0.2,0.2-0.6,0.1c0.7,0.5,0.8,0.1,0.8,0.1c0,0,0,0,0-0.1
			c0.1,0,0.2,0,0.2-0.1c0.3-0.1,0.2,0.6,0.2,0.6c0,0,0.1,0,0.1,0c-0.1-0.1,0.1-0.2,0.2-0.2c-0.5,0.2,0.1-1.1,0-1.2
			c0.1,0.1,0-0.1,0,0c0.1,0,0.6,0.1,0.6,0.1c0,0,0,0,0,0.1c-0.2,0.9-0.3,0.7,0.1,1.3c-0.6,0.6,0.2,1.8,0.5,2.8c0.1,0,0.2,0,0,0
			c0,0.1,0,0.1,0,0.2c0,0,0,0,0,0c0,0.1,0,0.1,0,0.2c0.1,0,0.1,0,0.1,0.1c0.1-0.1,0,0,0.1,0c-0.1-0.3,0-0.5,0.1-0.8c0,0-0.1-0.1,0,0
			c0,0,0,0,0,0c0.2-0.3,0.3-0.6,0.2-1c0,0,1.9,1.2,1.6,0.5c0.2,0.6,1.2,2.2,1.1,2.2c-0.1,0.1,0,0,0,0.1c0,0,0,0,0,0c0,0,0,0,0,0l0,0
			c0,0-0.1,0.1-0.1,0.1c-0.1,0-0.1,0-0.2,0.1c0,0,0.1-0.1,0-0.1c0,0-0.4-0.1-0.5-0.1c-0.2-0.3,0.2,0.1,0-0.1c0,0,0.3-0.4,0.4-0.5
			c-0.3,0.1-0.6,0-0.9,0c0,0,0,0,0.1,0.1c0.3,0.2-0.1-0.1-0.1-0.1c-0.3,0-0.5,0.1-0.7,0.2c0.5-0.4,0.6,0.1,0.7,0.4c0,0,0,0,0,0
			c0,0,0,0,0,0c0,0,0,0,0,0c-1.2-0.3-1.5,2.1-2.5,2.7c-0.4,0.3-0.7,0.3-0.9,0.1c0,0.1,0,0.2,0,0.2c0.4,1.9,0.9,0.5,1.8,1.3
			c0,0-0.2,0.4-0.1,0.4C34.1,29.8,37.4,30.6,38,32.2C38,32.2,38,32.2,38,32.2C38,32.2,38,32.2,38,32.2z M34.7,24.7
			C34.8,24.6,34.7,24.7,34.7,24.7L34.7,24.7z M32.6,25.2C32.6,25.2,32.6,25.2,32.6,25.2L32.6,25.2z M33.2,25.3
			C32.6,25.5,33.8,25.1,33.2,25.3L33.2,25.3z M33.6,26.4C33.7,26.4,33.6,26.4,33.6,26.4L33.6,26.4z M33.6,26.3
			C33.6,26.4,33.6,26.3,33.6,26.3L33.6,26.3z M33.8,25.8C33.8,25.9,33.9,25.8,33.8,25.8L33.8,25.8z M33.7,26.2
			C33.8,25.8,33.8,25.9,33.7,26.2L33.7,26.2z M33.5,25.3C33.4,25.3,33.4,25.3,33.5,25.3L33.5,25.3z M33.1,24.8
			C32.4,24.6,33.9,25.3,33.1,24.8L33.1,24.8z M32.3,21.6C32.3,21.6,32.4,21.6,32.3,21.6L32.3,21.6z M26.9,21.9
			C26.9,21.9,26.9,21.9,26.9,21.9C26.9,21.9,26.9,21.9,26.9,21.9L26.9,21.9C26.9,21.9,26.9,21.9,26.9,21.9
			C26.9,21.9,26.9,21.9,26.9,21.9z M27.2,22.2C27.2,22.2,27.2,22.2,27.2,22.2C27.1,22.2,27.1,22.2,27.2,22.2
			C27.1,22.2,27.1,22.2,27.2,22.2z M27.2,22.3C27.2,22.3,27.2,22.2,27.2,22.3C27.2,22.2,27.2,22.2,27.2,22.3
			C27.2,22.2,27.2,22.3,27.2,22.3z M27.9,23.3C27.9,23.4,28,23.3,27.9,23.3L27.9,23.3z M28.3,23.8C28.5,23.9,27.8,23.5,28.3,23.8
			L28.3,23.8z M29.8,21.7C29.8,21.6,28.9,21.9,29.8,21.7L29.8,21.7z M30.5,20.7C30.5,20.7,30.4,20.6,30.5,20.7L30.5,20.7z
			 M30.6,20.5C30.5,20.4,30.6,20.5,30.6,20.5L30.6,20.5z M31.4,23.5C31.4,23.5,31.5,23.5,31.4,23.5C31.1,22.9,31.6,23.8,31.4,23.5z
			 M31.5,23.7C31.5,23.4,31.4,23.9,31.5,23.7L31.5,23.7z M32.8,29.6C32.9,29.7,32.8,29.6,32.8,29.6L32.8,29.6z M32.4,37.1
			C32.4,37.1,32.4,37.1,32.4,37.1C32.4,37.1,32.4,37,32.4,37.1z M32.4,37.6C32.4,37.5,32.3,37.5,32.4,37.6L32.4,37.6z M32.5,37.8
			C32.5,37.8,32.5,37.6,32.5,37.8L32.5,37.8z M32.6,37.9C32.7,37.9,32.6,37.9,32.6,37.9L32.6,37.9z M36,31.4
			C36,31.4,36.1,31.3,36,31.4L36,31.4z M36.1,31.3C36,31.3,36.3,31.3,36.1,31.3L36.1,31.3z M32.3,37.5
			C32.3,37.5,32.3,37.5,32.3,37.5C32.3,37.5,32.3,37.5,32.3,37.5C32.3,37.5,32.3,37.4,32.3,37.5C32.3,37.4,32.3,37.4,32.3,37.5z
			 M31,19.3C31.1,19.3,31.1,19.3,31,19.3C31.1,19.3,31.1,19.3,31,19.3z M27.5,19.9C27.5,19.9,27.5,19.9,27.5,19.9
			C27.5,19.9,27.5,19.9,27.5,19.9z M27.7,19.8C27.6,19.8,27.6,19.8,27.7,19.8L27.7,19.8z M36.2,21.5C36.2,21.5,36.2,21.5,36.2,21.5
			C36.2,21.5,36.2,21.5,36.2,21.5z M34,19.9C34,19.9,34.1,19.9,34,19.9L34,19.9z M33.6,20.6c-0.1,0-0.2,0-0.3,0.1
			c-0.4-0.4-0.7-0.7,0.2-1c0,0,0,0,0,0c-0.2,0.1-0.3,0.2-0.2,0.4c0.6,0,2.7,0.3,2.9,1.5c0,0,0,0.1,0,0.1c0,0-0.2,0.1-0.1,0.1
			c-0.1,0,0,0,0,0c0,0-0.2,0.1-0.1,0.1c-0.1-0.1-0.4-0.4-0.4-0.4c0,0,0,0.1,0,0.1c0.4,0.1,0.2,0.6,0.3,0.7c-0.1,0-0.1,0,0,0.1
			c-0.4-0.2-0.5-0.2-0.2,0.1c-0.2-0.2-1.4-0.6-1.4-0.7c-0.1-0.2,0.2-0.4,0.3-0.5c-0.2,0-0.1,0,0,0c0.1-0.1,0.2-0.3,0-0.4
			c0,0,0,0,0,0c0,0,0,0,0,0C34.2,20.7,34,20.6,33.6,20.6C33.8,20.6,33.6,20.5,33.6,20.6z M35.1,20.6C35.1,20.6,35.1,20.6,35.1,20.6
			L35.1,20.6z M35.2,22.1C35.3,22.2,35.2,22,35.2,22.1L35.2,22.1z M35,20.5C35.1,20.5,35.1,20.5,35,20.5L35,20.5z M35,20.5
			C35,20.5,35,20.5,35,20.5C35.1,20.4,35,20.5,35,20.5z M33.4,20.5C33.2,20.5,33.5,20.5,33.4,20.5L33.4,20.5z M33.4,20.1
			C33.3,20.1,33.6,20.2,33.4,20.1L33.4,20.1z M35.9,25.2C36,25.1,35.8,25.2,35.9,25.2c0.1-0.1-0.1-0.1,0-0.1c0,0,0,0,0-0.1
			c0,0-0.1,0.1-0.1,0.1C35.8,25.1,35.8,25.1,35.9,25.2C35.8,25.2,35.8,25.2,35.9,25.2z M33.4,19.6C33.5,19.6,33.5,19.6,33.4,19.6
			C33.5,19.6,33.4,19.6,33.4,19.6z M33.1,20.9C33.1,21,33.2,20.6,33.1,20.9c0.1-0.1,0.2-0.2,0.2-0.3c0,0-0.1-0.1-0.1-0.1
			c-0.2,0-0.3,0.1-0.4,0.2c0,0.1,0.1,0.1,0.1,0.2C33,21,33.1,21,33.1,20.9z M34,19.9C34.5,20.3,34.1,19.9,34,19.9L34,19.9z
			 M35.4,25.1C35.4,25,35.4,25.1,35.4,25.1L35.4,25.1z M34.6,20.2C34.6,20.2,34.5,20.2,34.6,20.2C34.6,20.2,34.6,20.2,34.6,20.2z
			 M33.1,24.8C33,24.8,33.1,24.8,33.1,24.8L33.1,24.8z M32.7,21.3C32.9,21.5,32.8,21.3,32.7,21.3L32.7,21.3z M35,20.5
			C35,20.5,35,20.5,35,20.5C35,20.5,35,20.5,35,20.5z M31.4,23.5C31.4,23.5,31.4,23.5,31.4,23.5C31.4,23.5,31.4,23.5,31.4,23.5z
			 M34.7,28.8C34.7,28.8,34.6,28.7,34.7,28.8L34.7,28.8z M34.7,28.8C34.5,28.7,34.5,28.6,34.7,28.8L34.7,28.8z M34.3,28.6
			C34.2,28.6,34.3,28.6,34.3,28.6L34.3,28.6z M34.3,28.6C33.9,28.5,33.3,28.3,34.3,28.6L34.3,28.6z M33.3,28.6
			C33.4,28.7,33,28.3,33.3,28.6L33.3,28.6z M37.3,20.7C37.2,20.7,37.2,20.7,37.3,20.7C37.3,20.7,37.3,20.7,37.3,20.7z M35.3,18.9
			C35.3,18.9,35.4,18.9,35.3,18.9C35.4,18.9,35.3,18.9,35.3,18.9z M42.7,24.1C42.7,24.1,42.6,24.2,42.7,24.1L42.7,24.1z"/>
	</g>
	<circle id="XMLID_979_" class="st32" cx="32" cy="27.6" r="16.1"/>
	<line id="XMLID_959_" class="st8" x1="32" y1="38.9" x2="32" y2="43.8"/>
	<path id="XMLID_956_" class="st33" d="M32,15.6c-6.6,0-11.9,5.3-11.9,11.9c0,6.6,5.3,11.9,11.9,11.9s11.9-5.3,11.9-11.9
		C43.9,21,38.6,15.6,32,15.6z M32,38.2c-5.9,0-10.6-4.7-10.6-10.6C21.4,21.7,26.1,17,32,17s10.6,4.7,10.6,10.6
		C42.6,33.4,37.9,38.2,32,38.2z"/>
	<rect id="XMLID_950_" x="29.6" y="42.4" class="st34" width="2.4" height="10.2"/>
	<rect id="XMLID_932_" x="32" y="42.4" class="st17" width="2.4" height="10.2"/>
	<line id="XMLID_914_" class="st8" x1="29.5" y1="45.8" x2="34.5" y2="45.8"/>
	<line id="XMLID_913_" class="st8" x1="29.5" y1="47.8" x2="34.5" y2="47.8"/>
	<polygon id="XMLID_1188_" class="st35" points="40.3,21.3 40.3,21.3 40.3,21.3 	"/>
	<path id="XMLID_1187_" class="st35" d="M40.2,21.2C40.2,21.2,40.3,21.2,40.2,21.2C40.2,21.2,40.2,21.2,40.2,21.2z"/>
</g>
<g id="XMLID_964_" class="st7">
	<path id="XMLID_1205_" class="st18" d="M18.8,49V16c0-0.8,0.6-1.4,1.4-1.4h23.4c0.8,0,1.4,0.6,1.4,1.4V49H18.8z"/>
	<path id="XMLID_1204_" class="st8" d="M18.8,46.1V16c0-0.8,0.6-1.4,1.4-1.4h23.4c0.8,0,1.4,0.6,1.4,1.4v30"/>
	<line id="XMLID_1203_" class="st8" x1="28.6" y1="17.5" x2="35.3" y2="17.5"/>
	<rect id="XMLID_1202_" x="20.8" y="19.8" class="st12" width="22.2" height="29"/>
	<line id="XMLID_1181_" class="st8" x1="11" y1="49.4" x2="53" y2="49.4"/>
	<g id="XMLID_967_" class="st21">
		<rect id="XMLID_1184_" x="32" y="19.8" class="st2" width="1.5" height="29"/>
	</g>
	<g id="XMLID_960_" class="st21">
		<polygon id="XMLID_1183_" class="st2" points="43,37.5 41.6,37.5 32.3,29.9 33.2,28.7 42.2,36 43,36 		"/>
	</g>
	<g id="XMLID_965_" class="st21">
		<rect id="XMLID_1182_" x="20.8" y="28.6" class="st2" width="11.9" height="1.5"/>
	</g>
	<polygon id="XMLID_1201_" class="st36" points="42,19.8 42,47.8 20.8,47.8 20.8,48.8 43,48.8 43,19.8 	"/>
	<path id="XMLID_962_" class="st18" d="M37.5,40.2l-4.8-1.8L28,40.5l4.5-8.4L37.5,40.2z"/>
	<path id="XMLID_955_" class="st8" d="M37.2,40.1l-4.5-1.7c0,0-0.1,0-0.1,0l-4.4,1.9c-0.1,0-0.2-0.1-0.1-0.2l4.3-7.9
		c0-0.1,0.2-0.1,0.2,0l4.7,7.7C37.4,40,37.3,40.1,37.2,40.1z"/>
</g>
</svg>
